<svg width="52" height="18" viewBox="0 0 52 18" fill="none" xmlns="http://www.w3.org/2000/svg">
<path d="M1.56025 17.5496C1.39359 17.5496 1.25192 17.4912 1.13525 17.3746C1.01859 17.2579 0.960254 17.1162 0.960254 16.9496V0.67456C0.960254 0.491226 1.01025 0.341226 1.11025 0.22456C1.22692 0.107893 1.37692 0.0495594 1.56025 0.0495594H12.4353C12.6186 0.0495594 12.7686 0.107893 12.8853 0.22456C13.0019 0.341226 13.0603 0.491226 13.0603 0.67456V2.47456C13.0603 2.64123 13.0019 2.78289 12.8853 2.89956C12.7686 3.01623 12.6186 3.07456 12.4353 3.07456H4.43525V7.77456H11.9353C12.1186 7.77456 12.2686 7.83289 12.3853 7.94956C12.5019 8.06623 12.5603 8.20789 12.5603 8.37456V10.1746C12.5603 10.3412 12.5019 10.4829 12.3853 10.5996C12.2686 10.7162 12.1186 10.7746 11.9353 10.7746H4.43525V16.9496C4.43525 17.1162 4.37692 17.2579 4.26025 17.3746C4.14359 17.4912 3.99359 17.5496 3.81025 17.5496H1.56025ZM16.0308 17.5496C15.8641 17.5496 15.7224 17.4912 15.6058 17.3746C15.4891 17.2579 15.4308 17.1162 15.4308 16.9496V5.17456C15.4308 4.99123 15.4891 4.84123 15.6058 4.72456C15.7224 4.60789 15.8641 4.54956 16.0308 4.54956H18.0808C18.2641 4.54956 18.4141 4.60789 18.5308 4.72456C18.6474 4.84123 18.7058 4.99123 18.7058 5.17456V6.19956C19.5391 5.09956 20.7391 4.54956 22.3058 4.54956H23.3558C23.5391 4.54956 23.6808 4.60789 23.7808 4.72456C23.8974 4.82456 23.9558 4.96623 23.9558 5.14956V6.97456C23.9558 7.14123 23.8974 7.28289 23.7808 7.39956C23.6808 7.51623 23.5391 7.57456 23.3558 7.57456H21.3808C20.5974 7.57456 19.9808 7.79956 19.5308 8.24956C19.0808 8.69956 18.8558 9.31623 18.8558 10.0996V16.9496C18.8558 17.1162 18.7974 17.2579 18.6808 17.3746C18.5641 17.4912 18.4224 17.5496 18.2558 17.5496H16.0308ZM31.3585 17.7996C29.4918 17.7996 28.0085 17.2662 26.9085 16.1996C25.8252 15.1329 25.2502 13.6162 25.1835 11.6496L25.1585 11.0246C25.1585 8.94123 25.7002 7.29956 26.7835 6.09956C27.8835 4.89956 29.4002 4.29956 31.3335 4.29956C33.3168 4.29956 34.8418 4.89956 35.9085 6.09956C36.9918 7.29956 37.5335 8.89956 37.5335 10.8996V11.4246C37.5335 11.5912 37.4752 11.7329 37.3585 11.8496C37.2418 11.9662 37.0918 12.0246 36.9085 12.0246H28.6085V12.2246C28.6418 13.1579 28.8918 13.9329 29.3585 14.5496C29.8418 15.1496 30.5002 15.4496 31.3335 15.4496C32.2835 15.4496 33.0585 15.0662 33.6585 14.2996C33.8085 14.1162 33.9252 14.0079 34.0085 13.9746C34.0918 13.9246 34.2335 13.8996 34.4335 13.8996H36.6335C36.7835 13.8996 36.9085 13.9412 37.0085 14.0246C37.1252 14.1079 37.1835 14.2246 37.1835 14.3746C37.1835 14.7746 36.9418 15.2496 36.4585 15.7996C35.9918 16.3329 35.3168 16.7996 34.4335 17.1996C33.5502 17.5996 32.5252 17.7996 31.3585 17.7996ZM34.0835 9.89956V9.84956C34.0835 8.86623 33.8335 8.08289 33.3335 7.49956C32.8502 6.89956 32.1835 6.59956 31.3335 6.59956C30.4835 6.59956 29.8168 6.89956 29.3335 7.49956C28.8502 8.08289 28.6085 8.86623 28.6085 9.84956V9.89956H34.0835ZM45.8116 17.7996C43.945 17.7996 42.4616 17.2662 41.3616 16.1996C40.2783 15.1329 39.7033 13.6162 39.6366 11.6496L39.6116 11.0246C39.6116 8.94123 40.1533 7.29956 41.2366 6.09956C42.3366 4.89956 43.8533 4.29956 45.7866 4.29956C47.77 4.29956 49.295 4.89956 50.3616 6.09956C51.445 7.29956 51.9866 8.89956 51.9866 10.8996V11.4246C51.9866 11.5912 51.9283 11.7329 51.8116 11.8496C51.695 11.9662 51.545 12.0246 51.3616 12.0246H43.0616V12.2246C43.095 13.1579 43.345 13.9329 43.8116 14.5496C44.295 15.1496 44.9533 15.4496 45.7866 15.4496C46.7366 15.4496 47.5116 15.0662 48.1116 14.2996C48.2616 14.1162 48.3783 14.0079 48.4616 13.9746C48.545 13.9246 48.6866 13.8996 48.8866 13.8996H51.0866C51.2366 13.8996 51.3616 13.9412 51.4616 14.0246C51.5783 14.1079 51.6366 14.2246 51.6366 14.3746C51.6366 14.7746 51.395 15.2496 50.9116 15.7996C50.445 16.3329 49.77 16.7996 48.8866 17.1996C48.0033 17.5996 46.9783 17.7996 45.8116 17.7996ZM48.5366 9.89956V9.84956C48.5366 8.86623 48.2866 8.08289 47.7866 7.49956C47.3033 6.89956 46.6366 6.59956 45.7866 6.59956C44.9366 6.59956 44.27 6.89956 43.7866 7.49956C43.3033 8.08289 43.0616 8.86623 43.0616 9.84956V9.89956H48.5366Z" fill="#0B132A"/>
</svg>
