<svg width="102" height="24" viewBox="0 0 102 24" fill="none" xmlns="http://www.w3.org/2000/svg">
<path d="M6.5044 23.0496C6.33773 23.0496 6.19606 22.9912 6.07939 22.8746C5.96273 22.7746 5.90439 22.6329 5.90439 22.4496V20.6996C4.70439 20.5829 3.67106 20.2912 2.80439 19.8246C1.95439 19.3579 1.30439 18.7912 0.854395 18.1246C0.421061 17.4412 0.187728 16.7162 0.154395 15.9496C0.154395 15.8162 0.204395 15.6996 0.304395 15.5996C0.421061 15.4829 0.554395 15.4246 0.704395 15.4246H2.95439C3.15439 15.4246 3.30439 15.4662 3.40439 15.5496C3.52106 15.6162 3.62939 15.7329 3.72939 15.8996C3.91273 16.4662 4.29606 16.9412 4.87939 17.3246C5.47939 17.7079 6.29606 17.8996 7.32939 17.8996C8.47939 17.8996 9.34606 17.7079 9.92939 17.3246C10.5294 16.9246 10.8294 16.3829 10.8294 15.6996C10.8294 15.2496 10.6794 14.8746 10.3794 14.5746C10.0794 14.2746 9.62106 14.0162 9.00439 13.7996C8.40439 13.5662 7.51273 13.2912 6.3294 12.9746C4.36273 12.5079 2.92106 11.8912 2.00439 11.1246C1.08773 10.3579 0.629395 9.25789 0.629395 7.82456C0.629395 6.52456 1.09606 5.42456 2.02939 4.52456C2.97939 3.62456 4.27106 3.07456 5.90439 2.87456V1.14956C5.90439 0.966226 5.96273 0.824559 6.07939 0.724559C6.19606 0.607893 6.33773 0.54956 6.5044 0.54956H8.0544C8.23773 0.54956 8.37939 0.607893 8.47939 0.724559C8.59606 0.824559 8.65439 0.966226 8.65439 1.14956V2.92456C9.73773 3.07456 10.6627 3.39956 11.4294 3.89956C12.2127 4.38289 12.8044 4.94956 13.2044 5.59956C13.6211 6.24956 13.8461 6.88289 13.8794 7.49956C13.8794 7.64956 13.8294 7.77456 13.7294 7.87456C13.6294 7.97456 13.5044 8.02456 13.3544 8.02456H10.9794C10.6294 8.02456 10.3877 7.87456 10.2544 7.57456C10.1544 7.04123 9.82106 6.59956 9.25439 6.24956C8.70439 5.88289 8.01273 5.69956 7.17939 5.69956C6.26273 5.69956 5.53773 5.87456 5.00439 6.22456C4.48773 6.57456 4.22939 7.08289 4.22939 7.74956C4.22939 8.19956 4.35439 8.57456 4.60439 8.87456C4.87106 9.17456 5.28773 9.44123 5.85439 9.67456C6.43773 9.90789 7.26273 10.1579 8.32939 10.4246C9.81273 10.7579 10.9877 11.1329 11.8544 11.5496C12.7377 11.9662 13.3877 12.4912 13.8044 13.1246C14.2211 13.7579 14.4294 14.5662 14.4294 15.5496C14.4294 16.9996 13.9044 18.1746 12.8544 19.0746C11.8211 19.9746 10.4211 20.5162 8.65439 20.6996V22.4496C8.65439 22.6329 8.59606 22.7746 8.47939 22.8746C8.37939 22.9912 8.23773 23.0496 8.0544 23.0496H6.5044ZM22.2683 20.5496C22.1016 20.5496 21.9599 20.4912 21.8433 20.3746C21.7266 20.2579 21.6683 20.1162 21.6683 19.9496V7.04956L17.8933 9.94956C17.7933 10.0329 17.6683 10.0746 17.5183 10.0746C17.3183 10.0746 17.1599 9.99123 17.0433 9.82456L15.9683 8.42456C15.8849 8.30789 15.8433 8.19123 15.8433 8.07456C15.8433 7.87456 15.9349 7.70789 16.1183 7.57456L21.7183 3.22456C21.9016 3.10789 22.1099 3.04956 22.3433 3.04956H24.5933C24.7599 3.04956 24.9016 3.10789 25.0183 3.22456C25.1349 3.34123 25.1933 3.48289 25.1933 3.64956V19.9496C25.1933 20.1162 25.1349 20.2579 25.0183 20.3746C24.9016 20.4912 24.7599 20.5496 24.5933 20.5496H22.2683ZM28.6649 20.5496C28.4983 20.5496 28.3566 20.4912 28.2399 20.3746C28.1233 20.2579 28.0649 20.1162 28.0649 19.9496V18.6496C28.0649 18.1829 28.2733 17.7912 28.6899 17.4746L32.5899 13.5996C33.7733 12.6662 34.6816 11.9079 35.3149 11.3246C35.9649 10.7246 36.4483 10.1746 36.7649 9.67456C37.0816 9.17456 37.2399 8.68289 37.2399 8.19956C37.2399 7.41623 37.0316 6.79956 36.6149 6.34956C36.1983 5.89956 35.5649 5.67456 34.7149 5.67456C33.8816 5.67456 33.2233 5.92456 32.7399 6.42456C32.2733 6.90789 31.9816 7.54123 31.8649 8.32456C31.8149 8.52456 31.7149 8.67456 31.5649 8.77456C31.4316 8.85789 31.2816 8.89956 31.1149 8.89956H28.8649C28.7149 8.89956 28.5899 8.84956 28.4899 8.74956C28.3899 8.64956 28.3399 8.52456 28.3399 8.37456C28.3733 7.39123 28.6399 6.47456 29.1399 5.62456C29.6566 4.75789 30.3899 4.06623 31.3399 3.54956C32.2899 3.01623 33.4066 2.74956 34.6899 2.74956C36.0233 2.74956 37.1566 2.98289 38.0899 3.44956C39.0233 3.89956 39.7233 4.52456 40.1899 5.32456C40.6566 6.12456 40.8899 7.03289 40.8899 8.04956C40.8899 9.16623 40.5733 10.1829 39.9399 11.0996C39.3233 11.9996 38.3566 12.9662 37.0399 13.9996L33.5649 17.5246H40.6399C40.8233 17.5246 40.9733 17.5829 41.0899 17.6996C41.2066 17.8162 41.2649 17.9662 41.2649 18.1496V19.9496C41.2649 20.1329 41.2066 20.2829 41.0899 20.3996C40.9733 20.4996 40.8233 20.5496 40.6399 20.5496H28.6649Z" fill="#0B132A"/>
<path d="M49.2813 22.6496C49.148 22.6496 49.0313 22.5996 48.9313 22.4996C48.8313 22.3996 48.7813 22.2829 48.7813 22.1496C48.7813 22.0829 48.8063 21.9829 48.8563 21.8496L57.4063 1.32456C57.5563 1.04123 57.773 0.89956 58.0563 0.89956H58.9813C59.1147 0.89956 59.2313 0.94956 59.3313 1.04956C59.4313 1.14956 59.4813 1.26623 59.4813 1.39956C59.4813 1.46623 59.4563 1.56623 59.4063 1.69956L50.8313 22.2246C50.798 22.3246 50.723 22.4162 50.6063 22.4996C50.5063 22.5996 50.3647 22.6496 50.1813 22.6496H49.2813ZM68.6966 20.5496C68.5299 20.5496 68.3882 20.4996 68.2716 20.3996C68.1716 20.2829 68.1216 20.1412 68.1216 19.9746V8.12456C68.1216 7.95789 68.1716 7.82456 68.2716 7.72456C68.3882 7.60789 68.5299 7.54956 68.6966 7.54956H69.7466C69.9132 7.54956 70.0466 7.60789 70.1466 7.72456C70.2466 7.82456 70.2966 7.95789 70.2966 8.12456V8.97456C71.1966 7.85789 72.4132 7.29956 73.9466 7.29956C75.7799 7.29956 77.0799 8.06623 77.8466 9.59956C78.2466 8.89956 78.8132 8.34123 79.5466 7.92456C80.2966 7.50789 81.1299 7.29956 82.0466 7.29956C83.4132 7.29956 84.5299 7.76623 85.3966 8.69956C86.2632 9.63289 86.6966 10.9829 86.6966 12.7496V19.9746C86.6966 20.1412 86.6382 20.2829 86.5216 20.3996C86.4216 20.4996 86.2882 20.5496 86.1216 20.5496H85.0466C84.8799 20.5496 84.7382 20.4996 84.6216 20.3996C84.5216 20.2829 84.4716 20.1412 84.4716 19.9746V12.9746C84.4716 11.6412 84.1966 10.6912 83.6466 10.1246C83.0966 9.54123 82.3716 9.24956 81.4716 9.24956C80.6716 9.24956 79.9799 9.54956 79.3966 10.1496C78.8299 10.7329 78.5466 11.6746 78.5466 12.9746V19.9746C78.5466 20.1412 78.4882 20.2829 78.3716 20.3996C78.2716 20.4996 78.1382 20.5496 77.9716 20.5496H76.8716C76.7049 20.5496 76.5632 20.4996 76.4466 20.3996C76.3466 20.2829 76.2966 20.1412 76.2966 19.9746V12.9746C76.2966 11.6579 76.0049 10.7079 75.4216 10.1246C74.8549 9.54123 74.1466 9.24956 73.2966 9.24956C72.4966 9.24956 71.8049 9.54123 71.2216 10.1246C70.6549 10.7079 70.3716 11.6496 70.3716 12.9496V19.9746C70.3716 20.1412 70.3132 20.2829 70.1966 20.3996C70.0966 20.4996 69.9632 20.5496 69.7966 20.5496H68.6966ZM95.589 20.7996C93.7556 20.7996 92.339 20.2829 91.339 19.2496C90.3556 18.2162 89.8306 16.8412 89.764 15.1246L89.739 14.0496L89.764 12.9746C89.8306 11.2579 90.364 9.88289 91.364 8.84956C92.3806 7.81623 93.789 7.29956 95.589 7.29956C97.389 7.29956 98.789 7.81623 99.789 8.84956C100.806 9.88289 101.347 11.2579 101.414 12.9746C101.447 13.3412 101.464 13.6996 101.464 14.0496C101.464 14.3996 101.447 14.7579 101.414 15.1246C101.347 16.8412 100.814 18.2162 99.814 19.2496C98.8306 20.2829 97.4223 20.7996 95.589 20.7996ZM95.589 18.9246C96.6556 18.9246 97.4973 18.5912 98.114 17.9246C98.7473 17.2412 99.089 16.2662 99.139 14.9996C99.1556 14.8329 99.164 14.5162 99.164 14.0496C99.164 13.5829 99.1556 13.2662 99.139 13.0996C99.089 11.8329 98.7473 10.8662 98.114 10.1996C97.4973 9.51623 96.6556 9.17456 95.589 9.17456C94.5223 9.17456 93.6723 9.51623 93.039 10.1996C92.4223 10.8662 92.089 11.8329 92.039 13.0996L92.014 14.0496L92.039 14.9996C92.089 16.2662 92.4223 17.2412 93.039 17.9246C93.6723 18.5912 94.5223 18.9246 95.589 18.9246Z" fill="#4F5665"/>
</svg>
