<svg width="107" height="13" viewBox="0 0 107 13" fill="none" xmlns="http://www.w3.org/2000/svg">
<path d="M5.77206 12.3407C4.72673 12.3407 3.7614 12.0847 2.87606 11.5727C2.0014 11.05 1.30273 10.3513 0.780063 9.47666C0.268063 8.59133 0.0120625 7.626 0.0120625 6.58066C0.0120625 5.53533 0.268063 4.57533 0.780063 3.70066C1.30273 2.81533 2.0014 2.11666 2.87606 1.60466C3.7614 1.082 4.72673 0.820663 5.77206 0.820663C6.8174 0.820663 7.7774 1.082 8.65206 1.60466C9.5374 2.11666 10.2361 2.81533 10.7481 3.70066C11.2707 4.57533 11.5321 5.53533 11.5321 6.58066C11.5321 7.626 11.2707 8.59133 10.7481 9.47666C10.2361 10.3513 9.5374 11.05 8.65206 11.5727C7.7774 12.0847 6.8174 12.3407 5.77206 12.3407ZM5.77206 11.3327C6.6254 11.3327 7.4094 11.1193 8.12406 10.6927C8.83873 10.2553 9.40406 9.674 9.82006 8.94866C10.2467 8.22333 10.4601 7.434 10.4601 6.58066C10.4601 5.72733 10.2467 4.938 9.82006 4.21266C9.40406 3.47666 8.8334 2.89533 8.10806 2.46866C7.3934 2.03133 6.61473 1.81266 5.77206 1.81266C4.9294 1.81266 4.1454 2.03133 3.42006 2.46866C2.7054 2.89533 2.14006 3.47666 1.72406 4.21266C1.30806 4.938 1.10006 5.72733 1.10006 6.58066C1.10006 7.434 1.30806 8.22333 1.72406 8.94866C2.14006 9.674 2.7054 10.2553 3.42006 10.6927C4.1454 11.1193 4.9294 11.3327 5.77206 11.3327ZM5.77206 9.65266C4.98273 9.65266 4.3534 9.41266 3.88406 8.93266C3.41473 8.45266 3.1694 7.85 3.14806 7.12466L3.13206 6.56466L3.14806 6.00466C3.1694 5.27933 3.41473 4.67666 3.88406 4.19666C4.3534 3.71666 4.98273 3.47666 5.77206 3.47666C6.32673 3.47666 6.79606 3.56733 7.18006 3.74866C7.57473 3.93 7.86806 4.15933 8.06006 4.43666C8.26273 4.70333 8.3694 4.97533 8.38006 5.25266C8.38006 5.35933 8.34806 5.44466 8.28406 5.50866C8.22006 5.57266 8.13473 5.60466 8.02806 5.60466H7.51606C7.4094 5.60466 7.3294 5.578 7.27606 5.52466C7.22273 5.47133 7.17473 5.39666 7.13206 5.30066C7.03606 5.05533 6.8814 4.86866 6.66806 4.74066C6.45473 4.61266 6.15606 4.54866 5.77206 4.54866C5.26006 4.54866 4.8974 4.69266 4.68406 4.98066C4.4814 5.26866 4.3694 5.61533 4.34806 6.02066L4.33206 6.56466L4.34806 7.10866C4.3694 7.514 4.4814 7.86066 4.68406 8.14866C4.8974 8.43666 5.26006 8.58066 5.77206 8.58066C6.15606 8.58066 6.45473 8.51666 6.66806 8.38866C6.8814 8.26066 7.03606 8.074 7.13206 7.82866C7.17473 7.73266 7.22273 7.658 7.27606 7.60466C7.3294 7.55133 7.4094 7.52466 7.51606 7.52466H8.02806C8.13473 7.52466 8.22006 7.55666 8.28406 7.62066C8.34806 7.68466 8.38006 7.77 8.38006 7.87666C8.3694 8.154 8.26273 8.43133 8.06006 8.70866C7.86806 8.97533 7.57473 9.19933 7.18006 9.38066C6.79606 9.562 6.32673 9.65266 5.77206 9.65266ZM13.5348 12.1807C13.4281 12.1807 13.3375 12.1487 13.2628 12.0847C13.1988 12.01 13.1668 11.9193 13.1668 11.8127V11.3007C13.1668 11.0553 13.3001 10.8207 13.5668 10.5967L16.9588 7.20466C17.7801 6.522 18.3455 5.96733 18.6548 5.54066C18.9641 5.10333 19.1188 4.64466 19.1188 4.16466C19.1188 3.546 18.9428 3.06066 18.5908 2.70866C18.2495 2.35666 17.7481 2.18066 17.0868 2.18066C16.4681 2.18066 15.9721 2.36733 15.5988 2.74066C15.2255 3.10333 14.9961 3.58866 14.9108 4.19666C14.8895 4.32466 14.8361 4.42066 14.7508 4.48466C14.6761 4.538 14.5908 4.56466 14.4948 4.56466H13.6628C13.5668 4.56466 13.4868 4.538 13.4228 4.48466C13.3588 4.42066 13.3268 4.346 13.3268 4.26066C13.3481 3.68466 13.5028 3.13533 13.7908 2.61266C14.0788 2.07933 14.5001 1.64733 15.0548 1.31666C15.6201 0.97533 16.2975 0.804664 17.0868 0.804664C18.2921 0.804664 19.1988 1.11933 19.8068 1.74866C20.4255 2.36733 20.7348 3.15666 20.7348 4.11666C20.7348 4.78866 20.5641 5.39666 20.2228 5.94066C19.8921 6.474 19.3748 7.05 18.6708 7.66866L15.5988 10.7887H20.5908C20.7081 10.7887 20.7988 10.826 20.8628 10.9007C20.9375 10.9647 20.9748 11.05 20.9748 11.1567V11.8127C20.9748 11.9193 20.9375 12.01 20.8628 12.0847C20.7881 12.1487 20.6975 12.1807 20.5908 12.1807H13.5348ZM26.8454 12.3407C25.4694 12.3407 24.4614 11.9407 23.8214 11.1407C23.1814 10.3407 22.8401 9.29 22.7974 7.98866C22.7868 7.70066 22.7814 7.23666 22.7814 6.59666C22.7814 5.93533 22.7868 5.45533 22.7974 5.15666C22.8294 3.87666 23.1708 2.83666 23.8214 2.03666C24.4721 1.226 25.4801 0.820663 26.8454 0.820663C28.2214 0.820663 29.2348 1.226 29.8854 2.03666C30.5361 2.83666 30.8774 3.87666 30.9094 5.15666C30.9308 5.754 30.9414 6.234 30.9414 6.59666C30.9414 6.94866 30.9308 7.41266 30.9094 7.98866C30.8668 9.29 30.5254 10.3407 29.8854 11.1407C29.2454 11.9407 28.2321 12.3407 26.8454 12.3407ZM26.8454 10.9647C27.6454 10.9647 28.2481 10.698 28.6534 10.1647C29.0694 9.63133 29.2881 8.87933 29.3094 7.90866C29.3308 7.29 29.3414 6.842 29.3414 6.56466C29.3414 6.266 29.3308 5.82866 29.3094 5.25266C29.2881 4.29266 29.0748 3.54066 28.6694 2.99666C28.2641 2.45266 27.6561 2.18066 26.8454 2.18066C26.0454 2.18066 25.4374 2.45266 25.0214 2.99666C24.6161 3.54066 24.4028 4.29266 24.3814 5.25266L24.3654 6.56466L24.3814 7.90866C24.4028 8.87933 24.6161 9.63133 25.0214 10.1647C25.4374 10.698 26.0454 10.9647 26.8454 10.9647ZM33.0817 12.1807C32.975 12.1807 32.8844 12.1487 32.8097 12.0847C32.7457 12.01 32.7137 11.9193 32.7137 11.8127V11.3007C32.7137 11.0553 32.847 10.8207 33.1137 10.5967L36.5057 7.20466C37.327 6.522 37.8924 5.96733 38.2017 5.54066C38.511 5.10333 38.6657 4.64466 38.6657 4.16466C38.6657 3.546 38.4897 3.06066 38.1377 2.70866C37.7964 2.35666 37.295 2.18066 36.6337 2.18066C36.015 2.18066 35.519 2.36733 35.1457 2.74066C34.7724 3.10333 34.543 3.58866 34.4577 4.19666C34.4364 4.32466 34.383 4.42066 34.2977 4.48466C34.223 4.538 34.1377 4.56466 34.0417 4.56466H33.2097C33.1137 4.56466 33.0337 4.538 32.9697 4.48466C32.9057 4.42066 32.8737 4.346 32.8737 4.26066C32.895 3.68466 33.0497 3.13533 33.3377 2.61266C33.6257 2.07933 34.047 1.64733 34.6017 1.31666C35.167 0.97533 35.8444 0.804664 36.6337 0.804664C37.839 0.804664 38.7457 1.11933 39.3537 1.74866C39.9724 2.36733 40.2817 3.15666 40.2817 4.11666C40.2817 4.78866 40.111 5.39666 39.7697 5.94066C39.439 6.474 38.9217 7.05 38.2177 7.66866L35.1457 10.7887H40.1377C40.255 10.7887 40.3457 10.826 40.4097 10.9007C40.4844 10.9647 40.5217 11.05 40.5217 11.1567V11.8127C40.5217 11.9193 40.4844 12.01 40.4097 12.0847C40.335 12.1487 40.2444 12.1807 40.1377 12.1807H33.0817ZM46.3923 12.3407C45.0163 12.3407 44.0083 11.9407 43.3683 11.1407C42.7283 10.3407 42.387 9.29 42.3443 7.98866C42.3336 7.70066 42.3283 7.23666 42.3283 6.59666C42.3283 5.93533 42.3336 5.45533 42.3443 5.15666C42.3763 3.87666 42.7176 2.83666 43.3683 2.03666C44.019 1.226 45.027 0.820663 46.3923 0.820663C47.7683 0.820663 48.7816 1.226 49.4323 2.03666C50.083 2.83666 50.4243 3.87666 50.4563 5.15666C50.4776 5.754 50.4883 6.234 50.4883 6.59666C50.4883 6.94866 50.4776 7.41266 50.4563 7.98866C50.4136 9.29 50.0723 10.3407 49.4323 11.1407C48.7923 11.9407 47.779 12.3407 46.3923 12.3407ZM46.3923 10.9647C47.1923 10.9647 47.795 10.698 48.2003 10.1647C48.6163 9.63133 48.835 8.87933 48.8563 7.90866C48.8776 7.29 48.8883 6.842 48.8883 6.56466C48.8883 6.266 48.8776 5.82866 48.8563 5.25266C48.835 4.29266 48.6216 3.54066 48.2163 2.99666C47.811 2.45266 47.203 2.18066 46.3923 2.18066C45.5923 2.18066 44.9843 2.45266 44.5683 2.99666C44.163 3.54066 43.9496 4.29266 43.9283 5.25266L43.9123 6.56466L43.9283 7.90866C43.9496 8.87933 44.163 9.63133 44.5683 10.1647C44.9843 10.698 45.5923 10.9647 46.3923 10.9647ZM57.1584 12.1807C57.0518 12.1807 56.9611 12.1487 56.8864 12.0847C56.8224 12.01 56.7904 11.9193 56.7904 11.8127V1.36466C56.7904 1.24733 56.8224 1.15666 56.8864 1.09266C56.9611 1.018 57.0518 0.980663 57.1584 0.980663H57.9584C58.1291 0.980663 58.2678 1.066 58.3744 1.23666L61.7504 7.70066L65.1584 1.23666C65.1798 1.17266 65.2224 1.114 65.2864 1.06066C65.3611 1.00733 65.4518 0.980663 65.5584 0.980663H66.3424C66.4598 0.980663 66.5504 1.018 66.6144 1.09266C66.6891 1.15666 66.7264 1.24733 66.7264 1.36466V11.8127C66.7264 11.9193 66.6891 12.01 66.6144 12.0847C66.5398 12.1487 66.4491 12.1807 66.3424 12.1807H65.5584C65.4518 12.1807 65.3611 12.1487 65.2864 12.0847C65.2224 12.01 65.1904 11.9193 65.1904 11.8127V3.94066L62.5184 9.15666C62.4118 9.38066 62.2411 9.49266 62.0064 9.49266H61.5104C61.2758 9.49266 61.1051 9.38066 60.9984 9.15666L58.3104 3.94066V11.8127C58.3104 11.9193 58.2731 12.01 58.1984 12.0847C58.1344 12.1487 58.0491 12.1807 57.9424 12.1807H57.1584ZM71.6056 12.3407C71.0829 12.3407 70.5976 12.234 70.1496 12.0207C69.7016 11.8073 69.3442 11.5193 69.0776 11.1567C68.8216 10.7833 68.6936 10.3727 68.6936 9.92466C68.6936 9.22066 68.9816 8.64466 69.5576 8.19666C70.1442 7.738 70.9336 7.43933 71.9256 7.30066L74.3096 6.96466V6.50066C74.3096 5.41266 73.6856 4.86866 72.4376 4.86866C71.9682 4.86866 71.5842 4.97 71.2856 5.17266C70.9869 5.36466 70.7629 5.594 70.6136 5.86066C70.5816 5.95666 70.5389 6.026 70.4856 6.06866C70.4429 6.11133 70.3789 6.13266 70.2936 6.13266H69.6056C69.5096 6.13266 69.4242 6.10066 69.3496 6.03666C69.2856 5.962 69.2536 5.87666 69.2536 5.78066C69.2642 5.52466 69.3816 5.23666 69.6056 4.91666C69.8402 4.586 70.1976 4.30333 70.6776 4.06866C71.1576 3.82333 71.7496 3.70066 72.4536 3.70066C73.6482 3.70066 74.5069 3.98333 75.0296 4.54866C75.5522 5.10333 75.8136 5.79666 75.8136 6.62866V11.8127C75.8136 11.9193 75.7762 12.01 75.7016 12.0847C75.6376 12.1487 75.5522 12.1807 75.4456 12.1807H74.7096C74.6029 12.1807 74.5122 12.1487 74.4376 12.0847C74.3736 12.01 74.3416 11.9193 74.3416 11.8127V11.1247C74.1069 11.466 73.7656 11.754 73.3176 11.9887C72.8696 12.2233 72.2989 12.3407 71.6056 12.3407ZM71.9416 11.1407C72.6349 11.1407 73.2002 10.9167 73.6376 10.4687C74.0856 10.01 74.3096 9.354 74.3096 8.50066V8.05266L72.4536 8.32466C71.6962 8.43133 71.1256 8.61266 70.7416 8.86866C70.3576 9.114 70.1656 9.42866 70.1656 9.81266C70.1656 10.2393 70.3416 10.57 70.6936 10.8047C71.0456 11.0287 71.4616 11.1407 71.9416 11.1407ZM77.7297 12.1807C77.6444 12.1807 77.5644 12.1487 77.4897 12.0847C77.4257 12.0207 77.3937 11.9407 77.3937 11.8447C77.3937 11.7487 77.431 11.6527 77.5057 11.5567L80.2897 7.92466L77.6817 4.48466C77.607 4.39933 77.5697 4.30333 77.5697 4.19666C77.5697 4.10066 77.6017 4.02066 77.6657 3.95666C77.7297 3.89266 77.8097 3.86066 77.9057 3.86066H78.7217C78.8817 3.86066 79.0204 3.946 79.1377 4.11666L81.2657 6.88466L83.3937 4.13266C83.4577 4.04733 83.5164 3.98333 83.5697 3.94066C83.6337 3.88733 83.7137 3.86066 83.8097 3.86066H84.5937C84.6897 3.86066 84.7697 3.89266 84.8337 3.95666C84.8977 4.02066 84.9297 4.10066 84.9297 4.19666C84.9297 4.30333 84.8924 4.39933 84.8177 4.48466L82.1777 7.95666L84.9617 11.5567C85.0364 11.6527 85.0737 11.7487 85.0737 11.8447C85.0737 11.9407 85.0417 12.0207 84.9777 12.0847C84.9137 12.1487 84.8337 12.1807 84.7377 12.1807H83.8897C83.7297 12.1807 83.591 12.1007 83.4737 11.9407L81.2337 9.01266L78.9617 11.9407C78.8977 12.0153 78.8337 12.074 78.7697 12.1167C78.7164 12.1593 78.6417 12.1807 78.5457 12.1807H77.7297ZM91.1227 12.3407C89.6507 12.3407 88.5094 11.962 87.6987 11.2047C86.8987 10.4473 86.472 9.38066 86.4187 8.00466C86.408 7.71666 86.4027 7.24733 86.4027 6.59666C86.4027 5.93533 86.408 5.45533 86.4187 5.15666C86.472 3.79133 86.904 2.73 87.7147 1.97266C88.536 1.20466 89.672 0.820663 91.1227 0.820663C92.072 0.820663 92.8987 0.985997 93.6027 1.31666C94.3067 1.63666 94.8507 2.07933 95.2347 2.64466C95.6187 3.19933 95.8214 3.82866 95.8427 4.53266V4.56466C95.8427 4.65 95.8054 4.72466 95.7307 4.78866C95.6667 4.842 95.592 4.86866 95.5067 4.86866H93.9867C93.8587 4.86866 93.7627 4.842 93.6987 4.78866C93.6347 4.73533 93.5814 4.634 93.5387 4.48466C93.368 3.81266 93.0854 3.34333 92.6907 3.07666C92.296 2.79933 91.768 2.66066 91.1067 2.66066C89.5707 2.66066 88.7707 3.51933 88.7067 5.23666C88.696 5.52466 88.6907 5.96733 88.6907 6.56466C88.6907 7.162 88.696 7.61533 88.7067 7.92466C88.7707 9.642 89.5707 10.5007 91.1067 10.5007C91.768 10.5007 92.296 10.362 92.6907 10.0847C93.096 9.80733 93.3787 9.338 93.5387 8.67666C93.5707 8.52733 93.6187 8.426 93.6827 8.37266C93.7574 8.31933 93.8587 8.29266 93.9867 8.29266H95.5067C95.6027 8.29266 95.6827 8.32466 95.7467 8.38866C95.8214 8.45266 95.8534 8.53266 95.8427 8.62866C95.8214 9.33266 95.6187 9.96733 95.2347 10.5327C94.8507 11.0873 94.3067 11.53 93.6027 11.8607C92.8987 12.1807 92.072 12.3407 91.1227 12.3407ZM96.8662 12.1807C96.7702 12.1807 96.6902 12.1487 96.6262 12.0847C96.5622 12.0207 96.5302 11.9407 96.5302 11.8447C96.5302 11.7807 96.5462 11.7167 96.5782 11.6527L100.162 6.46866L96.8022 1.50866C96.7702 1.45533 96.7542 1.39133 96.7542 1.31666C96.7542 1.22066 96.7862 1.14066 96.8502 1.07666C96.9142 1.01266 96.9942 0.980663 97.0902 0.980663H98.7222C98.9142 0.980663 99.0795 1.082 99.2182 1.28466L101.57 4.74066L103.938 1.28466C104.077 1.082 104.242 0.980663 104.434 0.980663H105.986C106.082 0.980663 106.162 1.01266 106.226 1.07666C106.29 1.14066 106.322 1.22066 106.322 1.31666C106.322 1.39133 106.301 1.45533 106.258 1.50866L102.914 6.46866L106.498 11.6527C106.541 11.738 106.562 11.802 106.562 11.8447C106.562 11.9407 106.525 12.0207 106.45 12.0847C106.386 12.1487 106.312 12.1807 106.226 12.1807H104.53C104.328 12.1807 104.168 12.0847 104.05 11.8927L101.49 8.27666L98.9782 11.8927C98.8395 12.0847 98.6742 12.1807 98.4822 12.1807H96.8662Z" fill="#AFB5C0"/>
</svg>
