<svg width="91" height="24" viewBox="0 0 91 24" fill="none" xmlns="http://www.w3.org/2000/svg">
<path d="M7.32715 23.0496C7.16048 23.0496 7.01882 22.9912 6.90215 22.8746C6.78548 22.7746 6.72715 22.6329 6.72715 22.4496V20.6996C5.52715 20.5829 4.49382 20.2912 3.62715 19.8246C2.77715 19.3579 2.12715 18.7912 1.67715 18.1246C1.24382 17.4412 1.01048 16.7162 0.977148 15.9496C0.977148 15.8162 1.02715 15.6996 1.12715 15.5996C1.24382 15.4829 1.37715 15.4246 1.52715 15.4246H3.77715C3.97715 15.4246 4.12715 15.4662 4.22715 15.5496C4.34382 15.6162 4.45215 15.7329 4.55215 15.8996C4.73548 16.4662 5.11882 16.9412 5.70215 17.3246C6.30215 17.7079 7.11882 17.8996 8.15215 17.8996C9.30215 17.8996 10.1688 17.7079 10.7521 17.3246C11.3521 16.9246 11.6521 16.3829 11.6521 15.6996C11.6521 15.2496 11.5021 14.8746 11.2021 14.5746C10.9021 14.2746 10.4438 14.0162 9.82715 13.7996C9.22715 13.5662 8.33548 13.2912 7.15215 12.9746C5.18548 12.5079 3.74382 11.8912 2.82715 11.1246C1.91048 10.3579 1.45215 9.25789 1.45215 7.82456C1.45215 6.52456 1.91882 5.42456 2.85215 4.52456C3.80215 3.62456 5.09382 3.07456 6.72715 2.87456V1.14956C6.72715 0.966226 6.78548 0.824559 6.90215 0.724559C7.01882 0.607893 7.16048 0.54956 7.32715 0.54956H8.87715C9.06048 0.54956 9.20215 0.607893 9.30215 0.724559C9.41882 0.824559 9.47715 0.966226 9.47715 1.14956V2.92456C10.5605 3.07456 11.4855 3.39956 12.2521 3.89956C13.0355 4.38289 13.6271 4.94956 14.0271 5.59956C14.4438 6.24956 14.6688 6.88289 14.7021 7.49956C14.7021 7.64956 14.6521 7.77456 14.5521 7.87456C14.4521 7.97456 14.3271 8.02456 14.1771 8.02456H11.8021C11.4521 8.02456 11.2105 7.87456 11.0771 7.57456C10.9771 7.04123 10.6438 6.59956 10.0771 6.24956C9.52715 5.88289 8.83548 5.69956 8.00215 5.69956C7.08548 5.69956 6.36048 5.87456 5.82715 6.22456C5.31048 6.57456 5.05215 7.08289 5.05215 7.74956C5.05215 8.19956 5.17715 8.57456 5.42715 8.87456C5.69382 9.17456 6.11048 9.44123 6.67715 9.67456C7.26048 9.90789 8.08548 10.1579 9.15215 10.4246C10.6355 10.7579 11.8105 11.1329 12.6771 11.5496C13.5605 11.9662 14.2105 12.4912 14.6271 13.1246C15.0438 13.7579 15.2521 14.5662 15.2521 15.5496C15.2521 16.9996 14.7271 18.1746 13.6771 19.0746C12.6438 19.9746 11.2438 20.5162 9.47715 20.6996V22.4496C9.47715 22.6329 9.41882 22.7746 9.30215 22.8746C9.20215 22.9912 9.06048 23.0496 8.87715 23.0496H7.32715ZM20.741 20.5496C20.591 20.5496 20.466 20.4996 20.366 20.3996C20.266 20.2829 20.216 20.1496 20.216 19.9996C20.216 19.8996 20.2577 19.7912 20.341 19.6746L24.016 14.6246C23.7327 14.6912 23.3827 14.7246 22.966 14.7246C21.866 14.6912 20.8577 14.4162 19.941 13.8996C19.041 13.3662 18.3243 12.6662 17.791 11.7996C17.2577 10.9162 16.991 9.94123 16.991 8.87456C16.991 7.82456 17.2493 6.84123 17.766 5.92456C18.2827 4.99123 19.0493 4.24123 20.066 3.67456C21.0827 3.09123 22.3077 2.79956 23.741 2.79956C25.191 2.79956 26.4327 3.07456 27.466 3.62456C28.4993 4.15789 29.2743 4.88289 29.791 5.79956C30.3243 6.69956 30.591 7.69123 30.591 8.77456C30.591 9.45789 30.4827 10.0996 30.266 10.6996C30.0493 11.2996 29.7993 11.8246 29.516 12.2746C29.2493 12.7079 28.866 13.2746 28.366 13.9746L23.991 20.0496C23.8577 20.2162 23.7327 20.3412 23.616 20.4246C23.4993 20.5079 23.341 20.5496 23.141 20.5496H20.741ZM23.766 12.0246C24.6827 12.0246 25.4493 11.7412 26.066 11.1746C26.6827 10.5912 26.991 9.82456 26.991 8.87456C26.991 7.90789 26.6827 7.14123 26.066 6.57456C25.4493 5.99123 24.6827 5.69956 23.766 5.69956C22.866 5.69956 22.1077 5.99123 21.491 6.57456C20.8743 7.14123 20.566 7.90789 20.566 8.87456C20.566 9.82456 20.866 10.5912 21.466 11.1746C22.0827 11.7412 22.8493 12.0246 23.766 12.0246Z" fill="#0B132A"/>
<path d="M38.4586 22.6496C38.3253 22.6496 38.2086 22.5996 38.1086 22.4996C38.0086 22.3996 37.9586 22.2829 37.9586 22.1496C37.9586 22.0829 37.9836 21.9829 38.0336 21.8496L46.5836 1.32456C46.7336 1.04123 46.9503 0.89956 47.2336 0.89956H48.1586C48.2919 0.89956 48.4086 0.94956 48.5086 1.04956C48.6086 1.14956 48.6586 1.26623 48.6586 1.39956C48.6586 1.46623 48.6336 1.56623 48.5836 1.69956L40.0086 22.2246C39.9753 22.3246 39.9003 22.4162 39.7836 22.4996C39.6836 22.5996 39.5419 22.6496 39.3586 22.6496H38.4586ZM57.8738 20.5496C57.7072 20.5496 57.5655 20.4996 57.4488 20.3996C57.3488 20.2829 57.2988 20.1412 57.2988 19.9746V8.12456C57.2988 7.95789 57.3488 7.82456 57.4488 7.72456C57.5655 7.60789 57.7072 7.54956 57.8738 7.54956H58.9238C59.0905 7.54956 59.2238 7.60789 59.3238 7.72456C59.4238 7.82456 59.4738 7.95789 59.4738 8.12456V8.97456C60.3738 7.85789 61.5905 7.29956 63.1238 7.29956C64.9572 7.29956 66.2572 8.06623 67.0238 9.59956C67.4238 8.89956 67.9905 8.34123 68.7238 7.92456C69.4738 7.50789 70.3072 7.29956 71.2238 7.29956C72.5905 7.29956 73.7072 7.76623 74.5738 8.69956C75.4405 9.63289 75.8738 10.9829 75.8738 12.7496V19.9746C75.8738 20.1412 75.8155 20.2829 75.6988 20.3996C75.5988 20.4996 75.4655 20.5496 75.2988 20.5496H74.2238C74.0572 20.5496 73.9155 20.4996 73.7988 20.3996C73.6988 20.2829 73.6488 20.1412 73.6488 19.9746V12.9746C73.6488 11.6412 73.3738 10.6912 72.8238 10.1246C72.2738 9.54123 71.5488 9.24956 70.6488 9.24956C69.8488 9.24956 69.1572 9.54956 68.5738 10.1496C68.0072 10.7329 67.7238 11.6746 67.7238 12.9746V19.9746C67.7238 20.1412 67.6655 20.2829 67.5488 20.3996C67.4488 20.4996 67.3155 20.5496 67.1488 20.5496H66.0488C65.8822 20.5496 65.7405 20.4996 65.6238 20.3996C65.5238 20.2829 65.4738 20.1412 65.4738 19.9746V12.9746C65.4738 11.6579 65.1822 10.7079 64.5988 10.1246C64.0322 9.54123 63.3238 9.24956 62.4738 9.24956C61.6738 9.24956 60.9822 9.54123 60.3988 10.1246C59.8322 10.7079 59.5488 11.6496 59.5488 12.9496V19.9746C59.5488 20.1412 59.4905 20.2829 59.3738 20.3996C59.2738 20.4996 59.1405 20.5496 58.9738 20.5496H57.8738ZM84.7662 20.7996C82.9329 20.7996 81.5162 20.2829 80.5162 19.2496C79.5329 18.2162 79.0079 16.8412 78.9412 15.1246L78.9162 14.0496L78.9412 12.9746C79.0079 11.2579 79.5412 9.88289 80.5412 8.84956C81.5579 7.81623 82.9662 7.29956 84.7662 7.29956C86.5662 7.29956 87.9662 7.81623 88.9662 8.84956C89.9829 9.88289 90.5245 11.2579 90.5912 12.9746C90.6245 13.3412 90.6412 13.6996 90.6412 14.0496C90.6412 14.3996 90.6245 14.7579 90.5912 15.1246C90.5245 16.8412 89.9912 18.2162 88.9912 19.2496C88.0079 20.2829 86.5995 20.7996 84.7662 20.7996ZM84.7662 18.9246C85.8329 18.9246 86.6745 18.5912 87.2912 17.9246C87.9245 17.2412 88.2662 16.2662 88.3162 14.9996C88.3329 14.8329 88.3412 14.5162 88.3412 14.0496C88.3412 13.5829 88.3329 13.2662 88.3162 13.0996C88.2662 11.8329 87.9245 10.8662 87.2912 10.1996C86.6745 9.51623 85.8329 9.17456 84.7662 9.17456C83.6995 9.17456 82.8495 9.51623 82.2162 10.1996C81.5995 10.8662 81.2662 11.8329 81.2162 13.0996L81.1912 14.0496L81.2162 14.9996C81.2662 16.2662 81.5995 17.2412 82.2162 17.9246C82.8495 18.5912 83.6995 18.9246 84.7662 18.9246Z" fill="#4F5665"/>
</svg>
