<svg width="186" height="151" viewBox="0 0 186 151" fill="none" xmlns="http://www.w3.org/2000/svg">
<path d="M48.9958 60.5496C48.9024 60.5496 48.8231 60.5216 48.7578 60.4656C48.7018 60.4002 48.6738 60.3209 48.6738 60.2276V52.3876L46.3498 54.1796C46.2844 54.2356 46.2144 54.2636 46.1398 54.2636C46.0558 54.2636 45.9764 54.2169 45.9018 54.1236L45.5378 53.6616C45.4911 53.5962 45.4678 53.5309 45.4678 53.4656C45.4678 53.3536 45.5144 53.2649 45.6078 53.1996L48.6598 50.8476C48.7624 50.7822 48.8838 50.7496 49.0238 50.7496H49.7378C49.8311 50.7496 49.9058 50.7822 49.9618 50.8476C50.0271 50.9036 50.0598 50.9782 50.0598 51.0716V60.2276C50.0598 60.3209 50.0271 60.4002 49.9618 60.4656C49.9058 60.5216 49.8311 60.5496 49.7378 60.5496H48.9958ZM55.5581 60.6896C54.3541 60.6896 53.4721 60.3396 52.9121 59.6396C52.3521 58.9396 52.0534 58.0202 52.0161 56.8816C52.0067 56.6296 52.0021 56.2236 52.0021 55.6636C52.0021 55.0849 52.0067 54.6649 52.0161 54.4036C52.0441 53.2836 52.3427 52.3736 52.9121 51.6736C53.4814 50.9642 54.3634 50.6096 55.5581 50.6096C56.7621 50.6096 57.6487 50.9642 58.2181 51.6736C58.7874 52.3736 59.0861 53.2836 59.1141 54.4036C59.1327 54.9262 59.1421 55.3462 59.1421 55.6636C59.1421 55.9716 59.1327 56.3776 59.1141 56.8816C59.0767 58.0202 58.7781 58.9396 58.2181 59.6396C57.6581 60.3396 56.7714 60.6896 55.5581 60.6896ZM55.5581 59.4856C56.2581 59.4856 56.7854 59.2522 57.1401 58.7856C57.5041 58.3189 57.6954 57.6609 57.7141 56.8116C57.7327 56.2702 57.7421 55.8782 57.7421 55.6356C57.7421 55.3742 57.7327 54.9916 57.7141 54.4876C57.6954 53.6476 57.5087 52.9896 57.1541 52.5136C56.7994 52.0376 56.2674 51.7996 55.5581 51.7996C54.8581 51.7996 54.3261 52.0376 53.9621 52.5136C53.6074 52.9896 53.4207 53.6476 53.4021 54.4876L53.3881 55.6356L53.4021 56.8116C53.4207 57.6609 53.6074 58.3189 53.9621 58.7856C54.3261 59.2522 54.8581 59.4856 55.5581 59.4856ZM66.0783 60.5496C65.957 60.5496 65.8636 60.5216 65.7983 60.4656C65.733 60.4096 65.677 60.3209 65.6303 60.1996L63.6423 53.7036L63.6143 53.5636C63.6143 53.4796 63.6423 53.4096 63.6983 53.3536C63.7636 53.2976 63.8336 53.2696 63.9083 53.2696H64.5243C64.6176 53.2696 64.6923 53.2976 64.7483 53.3536C64.8136 53.4002 64.8556 53.4516 64.8743 53.5076L66.4283 58.7856L68.0943 53.5636C68.113 53.4889 68.155 53.4236 68.2203 53.3676C68.2856 53.3022 68.3743 53.2696 68.4863 53.2696H68.9623C69.0743 53.2696 69.163 53.3022 69.2283 53.3676C69.2936 53.4236 69.3356 53.4889 69.3543 53.5636L71.0203 58.7856L72.5743 53.5076C72.5836 53.4609 72.6163 53.4096 72.6723 53.3536C72.7376 53.2976 72.817 53.2696 72.9103 53.2696H73.5403C73.615 53.2696 73.6803 53.2976 73.7363 53.3536C73.7923 53.4096 73.8203 53.4796 73.8203 53.5636L73.7923 53.7036L71.8183 60.1996C71.7716 60.3209 71.7156 60.4096 71.6503 60.4656C71.585 60.5216 71.487 60.5496 71.3563 60.5496H70.8103C70.5583 60.5496 70.4043 60.4329 70.3483 60.1996L68.7243 55.1876L67.1003 60.1996C67.0256 60.4329 66.867 60.5496 66.6243 60.5496H66.0783ZM78.1615 60.6896C77.1348 60.6896 76.3368 60.4002 75.7675 59.8216C75.2075 59.2429 74.9088 58.4729 74.8715 57.5116L74.8575 56.9096L74.8715 56.3076C74.9088 55.3556 75.2122 54.5902 75.7815 54.0116C76.3508 53.4236 77.1442 53.1296 78.1615 53.1296C79.1788 53.1296 79.9722 53.4236 80.5415 54.0116C81.1108 54.5902 81.4142 55.3556 81.4515 56.3076C81.4608 56.4102 81.4655 56.6109 81.4655 56.9096C81.4655 57.2082 81.4608 57.4089 81.4515 57.5116C81.4142 58.4729 81.1108 59.2429 80.5415 59.8216C79.9815 60.4002 79.1882 60.6896 78.1615 60.6896ZM78.1615 59.6116C78.7495 59.6116 79.2115 59.4249 79.5475 59.0516C79.8928 58.6782 80.0795 58.1416 80.1075 57.4416C80.1168 57.3482 80.1215 57.1709 80.1215 56.9096C80.1215 56.6482 80.1168 56.4709 80.1075 56.3776C80.0795 55.6776 79.8928 55.1409 79.5475 54.7676C79.2115 54.3942 78.7495 54.2076 78.1615 54.2076C77.5735 54.2076 77.1068 54.3942 76.7615 54.7676C76.4162 55.1409 76.2342 55.6776 76.2155 56.3776L76.2015 56.9096L76.2155 57.4416C76.2342 58.1416 76.4162 58.6782 76.7615 59.0516C77.1068 59.4249 77.5735 59.6116 78.1615 59.6116ZM83.5406 60.5496C83.4472 60.5496 83.3679 60.5216 83.3026 60.4656C83.2466 60.4002 83.2186 60.3209 83.2186 60.2276V53.6056C83.2186 53.5122 83.2466 53.4329 83.3026 53.3676C83.3679 53.3022 83.4472 53.2696 83.5406 53.2696H84.1846C84.2779 53.2696 84.3572 53.3022 84.4226 53.3676C84.4879 53.4329 84.5206 53.5122 84.5206 53.6056V54.2216C84.9032 53.5869 85.5566 53.2696 86.4806 53.2696H87.0266C87.1199 53.2696 87.1946 53.3022 87.2506 53.3676C87.3159 53.4236 87.3486 53.4982 87.3486 53.5916V54.1656C87.3486 54.2589 87.3159 54.3336 87.2506 54.3896C87.1946 54.4456 87.1199 54.4736 87.0266 54.4736H86.1866C85.6826 54.4736 85.2859 54.6229 84.9966 54.9216C84.7072 55.2109 84.5626 55.6076 84.5626 56.1116V60.2276C84.5626 60.3209 84.5299 60.4002 84.4646 60.4656C84.3992 60.5216 84.3199 60.5496 84.2266 60.5496H83.5406ZM88.8729 60.5496C88.7796 60.5496 88.7002 60.5216 88.6349 60.4656C88.5789 60.4002 88.5509 60.3209 88.5509 60.2276V50.9316C88.5509 50.8382 88.5789 50.7636 88.6349 50.7076C88.7002 50.6422 88.7796 50.6096 88.8729 50.6096H89.5309C89.6242 50.6096 89.6989 50.6422 89.7549 50.7076C89.8202 50.7636 89.8529 50.8382 89.8529 50.9316V55.8036L92.6109 53.5076C92.6389 53.4889 92.6856 53.4516 92.7509 53.3956C92.8162 53.3489 92.8769 53.3162 92.9329 53.2976C92.9982 53.2789 93.0776 53.2696 93.1709 53.2696H93.9129C93.9969 53.2696 94.0669 53.2976 94.1229 53.3536C94.1789 53.4096 94.2069 53.4796 94.2069 53.5636C94.2069 53.6662 94.1509 53.7549 94.0389 53.8296L90.8049 56.5176L94.3889 60.0036C94.5009 60.0969 94.5569 60.1809 94.5569 60.2556C94.5569 60.3396 94.5289 60.4096 94.4729 60.4656C94.4169 60.5216 94.3469 60.5496 94.2629 60.5496H93.5349C93.3949 60.5496 93.2922 60.5356 93.2269 60.5076C93.1709 60.4796 93.0869 60.4142 92.9749 60.3116L89.8529 57.3296V60.2276C89.8529 60.3209 89.8202 60.4002 89.7549 60.4656C89.6989 60.5216 89.6242 60.5496 89.5309 60.5496H88.8729ZM96.8057 60.5496C96.7123 60.5496 96.633 60.5216 96.5677 60.4656C96.5117 60.4002 96.4837 60.3209 96.4837 60.2276V54.3896H95.2937C95.2003 54.3896 95.121 54.3616 95.0557 54.3056C94.9997 54.2402 94.9717 54.1609 94.9717 54.0676V53.5916C94.9717 53.4982 94.9997 53.4236 95.0557 53.3676C95.121 53.3022 95.2003 53.2696 95.2937 53.2696H96.4837V52.5696C96.4837 50.9829 97.2863 50.1896 98.8917 50.1896H99.6757C99.769 50.1896 99.8437 50.2222 99.8997 50.2876C99.965 50.3436 99.9977 50.4182 99.9977 50.5116V50.9876C99.9977 51.0809 99.965 51.1602 99.8997 51.2256C99.8437 51.2816 99.769 51.3096 99.6757 51.3096H98.9197C98.4997 51.3096 98.2057 51.4216 98.0377 51.6456C97.8697 51.8602 97.7857 52.1916 97.7857 52.6396V53.2696H100.782V50.5116C100.782 50.4182 100.81 50.3436 100.866 50.2876C100.931 50.2222 101.01 50.1896 101.104 50.1896H101.748C101.841 50.1896 101.916 50.2222 101.972 50.2876C102.037 50.3436 102.07 50.4182 102.07 50.5116V60.2276C102.07 60.3209 102.037 60.4002 101.972 60.4656C101.916 60.5216 101.841 60.5496 101.748 60.5496H101.104C101.01 60.5496 100.931 60.5216 100.866 60.4656C100.81 60.4002 100.782 60.3209 100.782 60.2276V54.3896H97.7857V60.2276C97.7857 60.3209 97.753 60.4002 97.6877 60.4656C97.6317 60.5216 97.557 60.5496 97.4637 60.5496H96.8057ZM107.132 60.6896C106.106 60.6896 105.308 60.4002 104.738 59.8216C104.178 59.2429 103.88 58.4729 103.842 57.5116L103.828 56.9096L103.842 56.3076C103.88 55.3556 104.183 54.5902 104.752 54.0116C105.322 53.4236 106.115 53.1296 107.132 53.1296C108.15 53.1296 108.943 53.4236 109.512 54.0116C110.082 54.5902 110.385 55.3556 110.422 56.3076C110.432 56.4102 110.436 56.6109 110.436 56.9096C110.436 57.2082 110.432 57.4089 110.422 57.5116C110.385 58.4729 110.082 59.2429 109.512 59.8216C108.952 60.4002 108.159 60.6896 107.132 60.6896ZM107.132 59.6116C107.72 59.6116 108.182 59.4249 108.518 59.0516C108.864 58.6782 109.05 58.1416 109.078 57.4416C109.088 57.3482 109.092 57.1709 109.092 56.9096C109.092 56.6482 109.088 56.4709 109.078 56.3776C109.05 55.6776 108.864 55.1409 108.518 54.7676C108.182 54.3942 107.72 54.2076 107.132 54.2076C106.544 54.2076 106.078 54.3942 105.732 54.7676C105.387 55.1409 105.205 55.6776 105.186 56.3776L105.172 56.9096L105.186 57.4416C105.205 58.1416 105.387 58.6782 105.732 59.0516C106.078 59.4249 106.544 59.6116 107.132 59.6116ZM113.93 60.5496C113.809 60.5496 113.715 60.5216 113.65 60.4656C113.585 60.4096 113.529 60.3209 113.482 60.1996L111.494 53.7036L111.466 53.5636C111.466 53.4796 111.494 53.4096 111.55 53.3536C111.615 53.2976 111.685 53.2696 111.76 53.2696H112.376C112.469 53.2696 112.544 53.2976 112.6 53.3536C112.665 53.4002 112.707 53.4516 112.726 53.5076L114.28 58.7856L115.946 53.5636C115.965 53.4889 116.007 53.4236 116.072 53.3676C116.137 53.3022 116.226 53.2696 116.338 53.2696H116.814C116.926 53.2696 117.015 53.3022 117.08 53.3676C117.145 53.4236 117.187 53.4889 117.206 53.5636L118.872 58.7856L120.426 53.5076C120.435 53.4609 120.468 53.4096 120.524 53.3536C120.589 53.2976 120.669 53.2696 120.762 53.2696H121.392C121.467 53.2696 121.532 53.2976 121.588 53.3536C121.644 53.4096 121.672 53.4796 121.672 53.5636L121.644 53.7036L119.67 60.1996C119.623 60.3209 119.567 60.4096 119.502 60.4656C119.437 60.5216 119.339 60.5496 119.208 60.5496H118.662C118.41 60.5496 118.256 60.4329 118.2 60.1996L116.576 55.1876L114.952 60.1996C114.877 60.4329 114.719 60.5496 114.476 60.5496H113.93ZM128.846 60.6896C128.193 60.6896 127.642 60.5869 127.194 60.3816C126.755 60.1669 126.424 59.9242 126.2 59.6536C125.985 59.3829 125.878 59.1589 125.878 58.9816C125.878 58.8882 125.911 58.8182 125.976 58.7716C126.051 58.7156 126.125 58.6876 126.2 58.6876H126.83C126.923 58.6876 127.007 58.7342 127.082 58.8276C127.306 59.0889 127.549 59.2942 127.81 59.4436C128.071 59.5929 128.421 59.6676 128.86 59.6676C129.345 59.6676 129.737 59.5742 130.036 59.3876C130.344 59.1916 130.498 58.9256 130.498 58.5896C130.498 58.3656 130.433 58.1836 130.302 58.0436C130.181 57.8942 129.966 57.7682 129.658 57.6656C129.359 57.5536 128.911 57.4322 128.314 57.3016C127.502 57.1242 126.923 56.8676 126.578 56.5316C126.242 56.1956 126.074 55.7616 126.074 55.2296C126.074 54.8749 126.177 54.5389 126.382 54.2216C126.597 53.8949 126.905 53.6336 127.306 53.4376C127.717 53.2322 128.207 53.1296 128.776 53.1296C129.373 53.1296 129.882 53.2276 130.302 53.4236C130.722 53.6196 131.035 53.8529 131.24 54.1236C131.455 54.3849 131.562 54.6042 131.562 54.7816C131.562 54.8656 131.529 54.9356 131.464 54.9916C131.408 55.0476 131.338 55.0756 131.254 55.0756H130.666C130.554 55.0756 130.461 55.0289 130.386 54.9356C130.237 54.7582 130.106 54.6229 129.994 54.5296C129.891 54.4269 129.737 54.3382 129.532 54.2636C129.336 54.1889 129.084 54.1516 128.776 54.1516C128.328 54.1516 127.983 54.2496 127.74 54.4456C127.497 54.6322 127.376 54.8796 127.376 55.1876C127.376 55.3836 127.427 55.5516 127.53 55.6916C127.633 55.8222 127.829 55.9436 128.118 56.0556C128.417 56.1676 128.846 56.2842 129.406 56.4056C130.293 56.5922 130.918 56.8629 131.282 57.2176C131.655 57.5629 131.842 58.0062 131.842 58.5476C131.842 58.9489 131.725 59.3129 131.492 59.6396C131.259 59.9662 130.913 60.2229 130.456 60.4096C130.008 60.5962 129.471 60.6896 128.846 60.6896ZM136.291 60.5496C134.816 60.5496 134.079 59.7282 134.079 58.0856V54.3896H132.987C132.894 54.3896 132.814 54.3616 132.749 54.3056C132.693 54.2402 132.665 54.1609 132.665 54.0676V53.5916C132.665 53.4982 132.693 53.4236 132.749 53.3676C132.814 53.3022 132.894 53.2696 132.987 53.2696H134.079V50.9316C134.079 50.8382 134.107 50.7636 134.163 50.7076C134.228 50.6422 134.308 50.6096 134.401 50.6096H135.059C135.152 50.6096 135.227 50.6422 135.283 50.7076C135.348 50.7636 135.381 50.8382 135.381 50.9316V53.2696H137.117C137.21 53.2696 137.285 53.3022 137.341 53.3676C137.406 53.4236 137.439 53.4982 137.439 53.5916V54.0676C137.439 54.1609 137.406 54.2402 137.341 54.3056C137.285 54.3616 137.21 54.3896 137.117 54.3896H135.381V57.9876C135.381 58.4542 135.46 58.8089 135.619 59.0516C135.778 59.2849 136.039 59.4016 136.403 59.4016H137.257C137.35 59.4016 137.425 59.4342 137.481 59.4996C137.546 59.5556 137.579 59.6302 137.579 59.7236V60.2276C137.579 60.3209 137.546 60.4002 137.481 60.4656C137.425 60.5216 137.35 60.5496 137.257 60.5496H136.291ZM141.83 60.6896C140.868 60.6896 140.098 60.3956 139.52 59.8076C138.95 59.2102 138.638 58.3982 138.582 57.3716L138.568 56.8956L138.582 56.4336C138.647 55.4256 138.964 54.6229 139.534 54.0256C140.112 53.4282 140.873 53.1296 141.816 53.1296C142.852 53.1296 143.654 53.4609 144.224 54.1236C144.793 54.7769 145.078 55.6636 145.078 56.7836V57.0216C145.078 57.1149 145.045 57.1942 144.98 57.2596C144.924 57.3156 144.849 57.3436 144.756 57.3436H139.912V57.4696C139.94 58.0762 140.122 58.5942 140.458 59.0236C140.803 59.4436 141.256 59.6536 141.816 59.6536C142.245 59.6536 142.595 59.5696 142.866 59.4016C143.146 59.2242 143.351 59.0422 143.482 58.8556C143.566 58.7436 143.626 58.6782 143.664 58.6596C143.71 58.6316 143.79 58.6176 143.902 58.6176H144.588C144.672 58.6176 144.742 58.6409 144.798 58.6876C144.854 58.7342 144.882 58.7996 144.882 58.8836C144.882 59.0889 144.751 59.3362 144.49 59.6256C144.238 59.9149 143.878 60.1669 143.412 60.3816C142.954 60.5869 142.427 60.6896 141.83 60.6896ZM143.748 56.3776V56.3356C143.748 55.6916 143.57 55.1689 143.216 54.7676C142.87 54.3569 142.404 54.1516 141.816 54.1516C141.228 54.1516 140.761 54.3569 140.416 54.7676C140.08 55.1689 139.912 55.6916 139.912 56.3356V56.3776H143.748ZM147.088 63.2096C146.994 63.2096 146.915 63.1769 146.85 63.1116C146.794 63.0556 146.766 62.9809 146.766 62.8876V53.5916C146.766 53.4982 146.794 53.4236 146.85 53.3676C146.915 53.3022 146.994 53.2696 147.088 53.2696H147.732C147.825 53.2696 147.9 53.3022 147.956 53.3676C148.021 53.4236 148.054 53.4982 148.054 53.5916V54.2076C148.576 53.4889 149.342 53.1296 150.35 53.1296C151.33 53.1296 152.062 53.4376 152.548 54.0536C153.042 54.6696 153.308 55.4629 153.346 56.4336C153.355 56.5362 153.36 56.6949 153.36 56.9096C153.36 57.1242 153.355 57.2829 153.346 57.3856C153.308 58.3469 153.042 59.1402 152.548 59.7656C152.053 60.3816 151.32 60.6896 150.35 60.6896C149.379 60.6896 148.623 60.3396 148.082 59.6396V62.8876C148.082 62.9809 148.054 63.0556 147.998 63.1116C147.942 63.1769 147.867 63.2096 147.774 63.2096H147.088ZM150.056 59.5556C150.718 59.5556 151.199 59.3502 151.498 58.9396C151.806 58.5289 151.974 57.9876 152.002 57.3156C152.011 57.2222 152.016 57.0869 152.016 56.9096C152.016 55.1456 151.362 54.2636 150.056 54.2636C149.412 54.2636 148.926 54.4782 148.6 54.9076C148.282 55.3276 148.11 55.8316 148.082 56.4196L148.068 56.9516L148.082 57.4976C148.1 58.0482 148.278 58.5289 148.614 58.9396C148.95 59.3502 149.43 59.5556 150.056 59.5556ZM157.612 60.6896C156.958 60.6896 156.408 60.5869 155.96 60.3816C155.521 60.1669 155.19 59.9242 154.966 59.6536C154.751 59.3829 154.644 59.1589 154.644 58.9816C154.644 58.8882 154.676 58.8182 154.742 58.7716C154.816 58.7156 154.891 58.6876 154.966 58.6876H155.596C155.689 58.6876 155.773 58.7342 155.848 58.8276C156.072 59.0889 156.314 59.2942 156.576 59.4436C156.837 59.5929 157.187 59.6676 157.626 59.6676C158.111 59.6676 158.503 59.5742 158.802 59.3876C159.11 59.1916 159.264 58.9256 159.264 58.5896C159.264 58.3656 159.198 58.1836 159.068 58.0436C158.946 57.8942 158.732 57.7682 158.424 57.6656C158.125 57.5536 157.677 57.4322 157.08 57.3016C156.268 57.1242 155.689 56.8676 155.344 56.5316C155.008 56.1956 154.84 55.7616 154.84 55.2296C154.84 54.8749 154.942 54.5389 155.148 54.2216C155.362 53.8949 155.67 53.6336 156.072 53.4376C156.482 53.2322 156.972 53.1296 157.542 53.1296C158.139 53.1296 158.648 53.2276 159.068 53.4236C159.488 53.6196 159.8 53.8529 160.006 54.1236C160.22 54.3849 160.328 54.6042 160.328 54.7816C160.328 54.8656 160.295 54.9356 160.23 54.9916C160.174 55.0476 160.104 55.0756 160.02 55.0756H159.432C159.32 55.0756 159.226 55.0289 159.152 54.9356C159.002 54.7582 158.872 54.6229 158.76 54.5296C158.657 54.4269 158.503 54.3382 158.298 54.2636C158.102 54.1889 157.85 54.1516 157.542 54.1516C157.094 54.1516 156.748 54.2496 156.506 54.4456C156.263 54.6322 156.142 54.8796 156.142 55.1876C156.142 55.3836 156.193 55.5516 156.296 55.6916C156.398 55.8222 156.594 55.9436 156.884 56.0556C157.182 56.1676 157.612 56.2842 158.172 56.4056C159.058 56.5922 159.684 56.8629 160.048 57.2176C160.421 57.5629 160.608 58.0062 160.608 58.5476C160.608 58.9489 160.491 59.3129 160.258 59.6396C160.024 59.9662 159.679 60.2229 159.222 60.4096C158.774 60.5962 158.237 60.6896 157.612 60.6896Z" fill="#4F5665"/>
<path d="M11.3797 60.2796C11.2485 60.2798 11.1184 60.2542 10.9971 60.2041C10.8758 60.154 10.7655 60.0804 10.6727 59.9876L6.43073 55.7446C6.33515 55.6524 6.25889 55.5421 6.2064 55.4201C6.15391 55.2982 6.12623 55.167 6.12498 55.0342C6.12374 54.9014 6.14895 54.7697 6.19914 54.6468C6.24933 54.5238 6.32351 54.4121 6.41733 54.3182C6.51116 54.2242 6.62276 54.1499 6.74562 54.0995C6.86847 54.0492 7.00013 54.0238 7.13291 54.0248C7.26569 54.0259 7.39693 54.0534 7.51897 54.1057C7.64101 54.158 7.75141 54.2341 7.84373 54.3296L11.3787 57.8646L17.7437 51.5016C17.9312 51.3139 18.1856 51.2085 18.4509 51.2084C18.7161 51.2083 18.9706 51.3136 19.1582 51.5011C19.3459 51.6886 19.4513 51.9429 19.4514 52.2082C19.4515 52.4735 19.3462 52.7279 19.1587 52.9156L12.0867 59.9876C11.9939 60.0804 11.8837 60.154 11.7623 60.2041C11.641 60.2542 11.511 60.2798 11.3797 60.2796Z" fill="#2FAB73"/>
<path d="M11.6178 100.28C11.4865 100.28 11.3565 100.254 11.2351 100.204C11.1138 100.154 11.0036 100.08 10.9108 99.9876L6.66876 95.7446C6.57319 95.6524 6.49693 95.5421 6.44444 95.4201C6.39194 95.2982 6.36427 95.167 6.36302 95.0342C6.36177 94.9014 6.38698 94.7697 6.43718 94.6468C6.48737 94.5238 6.56154 94.4121 6.65537 94.3182C6.74919 94.2242 6.86079 94.1499 6.98365 94.0995C7.10651 94.0492 7.23817 94.0238 7.37095 94.0248C7.50373 94.0259 7.63497 94.0534 7.75701 94.1057C7.87905 94.158 7.98945 94.2341 8.08176 94.3296L11.6168 97.8646L17.9818 91.5016C18.1693 91.3139 18.4236 91.2085 18.6889 91.2084C18.9542 91.2083 19.2086 91.3136 19.3963 91.5011C19.5839 91.6886 19.6894 91.9429 19.6895 92.2082C19.6896 92.4735 19.5843 92.7279 19.3968 92.9156L12.3248 99.9876C12.2319 100.08 12.1217 100.154 12.0004 100.204C11.8791 100.254 11.749 100.28 11.6178 100.28Z" fill="#2FAB73"/>
<path d="M50.0458 100.69C48.8418 100.69 47.9084 100.368 47.2458 99.7236C46.5924 99.0702 46.2658 98.0856 46.2658 96.7696V91.0856C46.2658 90.9829 46.2938 90.9036 46.3498 90.8476C46.4151 90.7822 46.4944 90.7496 46.5878 90.7496H47.3018C47.4044 90.7496 47.4838 90.7822 47.5398 90.8476C47.6051 90.9036 47.6378 90.9829 47.6378 91.0856V96.7976C47.6378 97.6936 47.8478 98.3656 48.2678 98.8136C48.6878 99.2616 49.2804 99.4856 50.0458 99.4856C50.8111 99.4856 51.4038 99.2616 51.8238 98.8136C52.2438 98.3656 52.4538 97.6936 52.4538 96.7976V91.0856C52.4538 90.9829 52.4818 90.9036 52.5378 90.8476C52.6031 90.7822 52.6824 90.7496 52.7758 90.7496H53.5038C53.5971 90.7496 53.6718 90.7822 53.7278 90.8476C53.7931 90.9129 53.8258 90.9922 53.8258 91.0856V96.7696C53.8258 98.0856 53.4944 99.0702 52.8318 99.7236C52.1784 100.368 51.2498 100.69 50.0458 100.69ZM56.3062 100.55C56.2128 100.55 56.1335 100.522 56.0682 100.466C56.0122 100.4 55.9842 100.321 55.9842 100.228V93.5916C55.9842 93.4982 56.0122 93.4236 56.0682 93.3676C56.1335 93.3022 56.2128 93.2696 56.3062 93.2696H56.9642C57.0575 93.2696 57.1322 93.3022 57.1882 93.3676C57.2535 93.4236 57.2862 93.4982 57.2862 93.5916V94.2076C57.5568 93.8622 57.8742 93.5962 58.2382 93.4096C58.6115 93.2229 59.0735 93.1296 59.6242 93.1296C60.5202 93.1296 61.2155 93.4189 61.7102 93.9976C62.2142 94.5669 62.4662 95.3276 62.4662 96.2796V100.228C62.4662 100.321 62.4335 100.4 62.3682 100.466C62.3122 100.522 62.2375 100.55 62.1442 100.55H61.4442C61.3508 100.55 61.2715 100.522 61.2062 100.466C61.1502 100.4 61.1222 100.321 61.1222 100.228V96.3496C61.1222 95.6869 60.9588 95.1736 60.6322 94.8096C60.3148 94.4456 59.8528 94.2636 59.2462 94.2636C58.6582 94.2636 58.1915 94.4502 57.8462 94.8236C57.5008 95.1876 57.3282 95.6962 57.3282 96.3496V100.228C57.3282 100.321 57.2955 100.4 57.2302 100.466C57.1742 100.522 57.0995 100.55 57.0062 100.55H56.3062ZM64.8104 100.55C64.7171 100.55 64.6377 100.522 64.5724 100.466C64.5164 100.4 64.4884 100.321 64.4884 100.228V90.9316C64.4884 90.8382 64.5164 90.7636 64.5724 90.7076C64.6377 90.6422 64.7171 90.6096 64.8104 90.6096H65.4684C65.5617 90.6096 65.6364 90.6422 65.6924 90.7076C65.7577 90.7636 65.7904 90.8382 65.7904 90.9316V100.228C65.7904 100.321 65.7577 100.4 65.6924 100.466C65.6364 100.522 65.5617 100.55 65.4684 100.55H64.8104ZM68.0887 91.9116C67.9954 91.9116 67.916 91.8836 67.8507 91.8276C67.7947 91.7622 67.7667 91.6829 67.7667 91.5896V90.8336C67.7667 90.7402 67.7947 90.6609 67.8507 90.5956C67.916 90.5302 67.9954 90.4976 68.0887 90.4976H68.9707C69.064 90.4976 69.1434 90.5302 69.2087 90.5956C69.274 90.6609 69.3067 90.7402 69.3067 90.8336V91.5896C69.3067 91.6829 69.274 91.7622 69.2087 91.8276C69.1434 91.8836 69.064 91.9116 68.9707 91.9116H68.0887ZM68.2007 100.55C68.1074 100.55 68.028 100.522 67.9627 100.466C67.9067 100.4 67.8787 100.321 67.8787 100.228V93.5916C67.8787 93.4982 67.9067 93.4236 67.9627 93.3676C68.028 93.3022 68.1074 93.2696 68.2007 93.2696H68.8727C68.966 93.2696 69.0407 93.3022 69.0967 93.3676C69.162 93.4236 69.1947 93.4982 69.1947 93.5916V100.228C69.1947 100.321 69.162 100.4 69.0967 100.466C69.0407 100.522 68.966 100.55 68.8727 100.55H68.2007ZM71.5913 100.55C71.498 100.55 71.4187 100.522 71.3533 100.466C71.2973 100.4 71.2693 100.321 71.2693 100.228V93.5916C71.2693 93.4982 71.2973 93.4236 71.3533 93.3676C71.4187 93.3022 71.498 93.2696 71.5913 93.2696H72.2213C72.3147 93.2696 72.3893 93.3022 72.4453 93.3676C72.5107 93.4236 72.5433 93.4982 72.5433 93.5916V94.0816C73.0287 93.4469 73.7053 93.1296 74.5733 93.1296C75.6093 93.1296 76.342 93.5589 76.7713 94.4176C76.9953 94.0256 77.3127 93.7129 77.7233 93.4796C78.134 93.2462 78.596 93.1296 79.1093 93.1296C79.8747 93.1296 80.5 93.3909 80.9853 93.9136C81.4707 94.4362 81.7133 95.1922 81.7133 96.1816V100.228C81.7133 100.321 81.6807 100.4 81.6153 100.466C81.5593 100.522 81.4847 100.55 81.3913 100.55H80.7333C80.64 100.55 80.5607 100.522 80.4953 100.466C80.4393 100.4 80.4113 100.321 80.4113 100.228V96.3076C80.4113 95.5796 80.2573 95.0569 79.9493 94.7396C79.6507 94.4222 79.254 94.2636 78.7593 94.2636C78.3207 94.2636 77.9427 94.4269 77.6253 94.7536C77.308 95.0709 77.1493 95.5889 77.1493 96.3076V100.228C77.1493 100.321 77.1167 100.4 77.0513 100.466C76.9953 100.522 76.9207 100.55 76.8273 100.55H76.1693C76.076 100.55 75.9967 100.522 75.9313 100.466C75.8753 100.4 75.8473 100.321 75.8473 100.228V96.3076C75.8473 95.5796 75.6887 95.0569 75.3713 94.7396C75.0633 94.4222 74.6713 94.2636 74.1953 94.2636C73.7567 94.2636 73.3787 94.4269 73.0613 94.7536C72.744 95.0709 72.5853 95.5842 72.5853 96.2936V100.228C72.5853 100.321 72.5527 100.4 72.4873 100.466C72.4313 100.522 72.3567 100.55 72.2633 100.55H71.5913ZM83.9207 91.9116C83.8274 91.9116 83.7481 91.8836 83.6827 91.8276C83.6267 91.7622 83.5987 91.6829 83.5987 91.5896V90.8336C83.5987 90.7402 83.6267 90.6609 83.6827 90.5956C83.7481 90.5302 83.8274 90.4976 83.9207 90.4976H84.8027C84.8961 90.4976 84.9754 90.5302 85.0407 90.5956C85.1061 90.6609 85.1387 90.7402 85.1387 90.8336V91.5896C85.1387 91.6829 85.1061 91.7622 85.0407 91.8276C84.9754 91.8836 84.8961 91.9116 84.8027 91.9116H83.9207ZM84.0327 100.55C83.9394 100.55 83.8601 100.522 83.7947 100.466C83.7387 100.4 83.7107 100.321 83.7107 100.228V93.5916C83.7107 93.4982 83.7387 93.4236 83.7947 93.3676C83.8601 93.3022 83.9394 93.2696 84.0327 93.2696H84.7047C84.7981 93.2696 84.8727 93.3022 84.9287 93.3676C84.9941 93.4236 85.0267 93.4982 85.0267 93.5916V100.228C85.0267 100.321 84.9941 100.4 84.9287 100.466C84.8727 100.522 84.7981 100.55 84.7047 100.55H84.0327ZM89.9434 100.55C88.4687 100.55 87.7314 99.7282 87.7314 98.0856V94.3896H86.6394C86.546 94.3896 86.4667 94.3616 86.4014 94.3056C86.3454 94.2402 86.3174 94.1609 86.3174 94.0676V93.5916C86.3174 93.4982 86.3454 93.4236 86.4014 93.3676C86.4667 93.3022 86.546 93.2696 86.6394 93.2696H87.7314V90.9316C87.7314 90.8382 87.7594 90.7636 87.8154 90.7076C87.8807 90.6422 87.96 90.6096 88.0534 90.6096H88.7114C88.8047 90.6096 88.8794 90.6422 88.9354 90.7076C89.0007 90.7636 89.0334 90.8382 89.0334 90.9316V93.2696H90.7694C90.8627 93.2696 90.9374 93.3022 90.9934 93.3676C91.0587 93.4236 91.0914 93.4982 91.0914 93.5916V94.0676C91.0914 94.1609 91.0587 94.2402 90.9934 94.3056C90.9374 94.3616 90.8627 94.3896 90.7694 94.3896H89.0334V97.9876C89.0334 98.4542 89.1127 98.8089 89.2714 99.0516C89.43 99.2849 89.6914 99.4016 90.0554 99.4016H90.9094C91.0027 99.4016 91.0774 99.4342 91.1334 99.4996C91.1987 99.5556 91.2314 99.6302 91.2314 99.7236V100.228C91.2314 100.321 91.1987 100.4 91.1334 100.466C91.0774 100.522 91.0027 100.55 90.9094 100.55H89.9434ZM95.4821 100.69C94.5208 100.69 93.7508 100.396 93.1721 99.8076C92.6028 99.2102 92.2901 98.3982 92.2341 97.3716L92.2201 96.8956L92.2341 96.4336C92.2995 95.4256 92.6168 94.6229 93.1861 94.0256C93.7648 93.4282 94.5255 93.1296 95.4681 93.1296C96.5041 93.1296 97.3068 93.4609 97.8761 94.1236C98.4455 94.7769 98.7301 95.6636 98.7301 96.7836V97.0216C98.7301 97.1149 98.6975 97.1942 98.6321 97.2596C98.5761 97.3156 98.5015 97.3436 98.4081 97.3436H93.5641V97.4696C93.5921 98.0762 93.7741 98.5942 94.1101 99.0236C94.4555 99.4436 94.9081 99.6536 95.4681 99.6536C95.8975 99.6536 96.2475 99.5696 96.5181 99.4016C96.7981 99.2242 97.0035 99.0422 97.1341 98.8556C97.2181 98.7436 97.2788 98.6782 97.3161 98.6596C97.3628 98.6316 97.4421 98.6176 97.5541 98.6176H98.2401C98.3241 98.6176 98.3941 98.6409 98.4501 98.6876C98.5061 98.7342 98.5341 98.7996 98.5341 98.8836C98.5341 99.0889 98.4035 99.3362 98.1421 99.6256C97.8901 99.9149 97.5308 100.167 97.0641 100.382C96.6068 100.587 96.0795 100.69 95.4821 100.69ZM97.4001 96.3776V96.3356C97.4001 95.6916 97.2228 95.1689 96.8681 94.7676C96.5228 94.3569 96.0561 94.1516 95.4681 94.1516C94.8801 94.1516 94.4135 94.3569 94.0681 94.7676C93.7321 95.1689 93.5641 95.6916 93.5641 96.3356V96.3776H97.4001ZM103.064 100.69C102.093 100.69 101.361 100.372 100.866 99.7376C100.371 99.1029 100.11 98.3002 100.082 97.3296L100.068 96.9096L100.082 96.4896C100.11 95.5282 100.371 94.7302 100.866 94.0956C101.361 93.4516 102.093 93.1296 103.064 93.1296C104.025 93.1296 104.781 93.4702 105.332 94.1516V90.9316C105.332 90.8382 105.36 90.7636 105.416 90.7076C105.481 90.6422 105.561 90.6096 105.654 90.6096H106.326C106.419 90.6096 106.494 90.6422 106.55 90.7076C106.615 90.7636 106.648 90.8382 106.648 90.9316V100.228C106.648 100.321 106.615 100.4 106.55 100.466C106.494 100.522 106.419 100.55 106.326 100.55H105.696C105.603 100.55 105.523 100.522 105.458 100.466C105.402 100.4 105.374 100.321 105.374 100.228V99.6396C104.833 100.34 104.063 100.69 103.064 100.69ZM103.358 99.5556C104.002 99.5556 104.483 99.3456 104.8 98.9256C105.127 98.4962 105.304 97.9876 105.332 97.3996C105.341 97.2969 105.346 97.1196 105.346 96.8676C105.346 96.6062 105.341 96.4242 105.332 96.3216C105.313 95.7709 105.136 95.2902 104.8 94.8796C104.464 94.4689 103.983 94.2636 103.358 94.2636C102.695 94.2636 102.21 94.4689 101.902 94.8796C101.603 95.2902 101.44 95.8316 101.412 96.5036L101.398 96.9096C101.398 98.6736 102.051 99.5556 103.358 99.5556ZM114.878 100.69C113.991 100.69 113.305 100.405 112.82 99.8356C112.335 99.2569 112.092 98.4916 112.092 97.5396V93.5916C112.092 93.4982 112.12 93.4236 112.176 93.3676C112.241 93.3022 112.321 93.2696 112.414 93.2696H113.114C113.207 93.2696 113.282 93.3022 113.338 93.3676C113.403 93.4236 113.436 93.4982 113.436 93.5916V97.4696C113.436 98.8602 114.043 99.5556 115.256 99.5556C115.844 99.5556 116.311 99.3736 116.656 99.0096C117.001 98.6362 117.174 98.1229 117.174 97.4696V93.5916C117.174 93.4982 117.202 93.4236 117.258 93.3676C117.323 93.3022 117.403 93.2696 117.496 93.2696H118.196C118.289 93.2696 118.364 93.3022 118.42 93.3676C118.476 93.4236 118.504 93.4982 118.504 93.5916V100.228C118.504 100.321 118.476 100.4 118.42 100.466C118.364 100.522 118.289 100.55 118.196 100.55H117.538C117.445 100.55 117.365 100.522 117.3 100.466C117.244 100.4 117.216 100.321 117.216 100.228V99.6116C116.955 99.9662 116.637 100.237 116.264 100.424C115.891 100.601 115.429 100.69 114.878 100.69ZM123.104 100.69C122.45 100.69 121.9 100.587 121.452 100.382C121.013 100.167 120.682 99.9242 120.458 99.6536C120.243 99.3829 120.136 99.1589 120.136 98.9816C120.136 98.8882 120.168 98.8182 120.234 98.7716C120.308 98.7156 120.383 98.6876 120.458 98.6876H121.088C121.181 98.6876 121.265 98.7342 121.34 98.8276C121.564 99.0889 121.806 99.2942 122.068 99.4436C122.329 99.5929 122.679 99.6676 123.118 99.6676C123.603 99.6676 123.995 99.5742 124.294 99.3876C124.602 99.1916 124.756 98.9256 124.756 98.5896C124.756 98.3656 124.69 98.1836 124.56 98.0436C124.438 97.8942 124.224 97.7682 123.916 97.6656C123.617 97.5536 123.169 97.4322 122.572 97.3016C121.76 97.1242 121.181 96.8676 120.836 96.5316C120.5 96.1956 120.332 95.7616 120.332 95.2296C120.332 94.8749 120.434 94.5389 120.64 94.2216C120.854 93.8949 121.162 93.6336 121.564 93.4376C121.974 93.2322 122.464 93.1296 123.034 93.1296C123.631 93.1296 124.14 93.2276 124.56 93.4236C124.98 93.6196 125.292 93.8529 125.498 94.1236C125.712 94.3849 125.82 94.6042 125.82 94.7816C125.82 94.8656 125.787 94.9356 125.722 94.9916C125.666 95.0476 125.596 95.0756 125.512 95.0756H124.924C124.812 95.0756 124.718 95.0289 124.644 94.9356C124.494 94.7582 124.364 94.6229 124.252 94.5296C124.149 94.4269 123.995 94.3382 123.79 94.2636C123.594 94.1889 123.342 94.1516 123.034 94.1516C122.586 94.1516 122.24 94.2496 121.998 94.4456C121.755 94.6322 121.634 94.8796 121.634 95.1876C121.634 95.3836 121.685 95.5516 121.788 95.6916C121.89 95.8222 122.086 95.9436 122.376 96.0556C122.674 96.1676 123.104 96.2842 123.664 96.4056C124.55 96.5922 125.176 96.8629 125.54 97.2176C125.913 97.5629 126.1 98.0062 126.1 98.5476C126.1 98.9489 125.983 99.3129 125.75 99.6396C125.516 99.9662 125.171 100.223 124.714 100.41C124.266 100.596 123.729 100.69 123.104 100.69ZM129.751 100.69C129.293 100.69 128.869 100.596 128.477 100.41C128.085 100.223 127.772 99.9709 127.539 99.6536C127.315 99.3269 127.203 98.9676 127.203 98.5756C127.203 97.9596 127.455 97.4556 127.959 97.0636C128.472 96.6622 129.163 96.4009 130.031 96.2796L132.117 95.9856V95.5796C132.117 94.6276 131.571 94.1516 130.479 94.1516C130.068 94.1516 129.732 94.2402 129.471 94.4176C129.209 94.5856 129.013 94.7862 128.883 95.0196C128.855 95.1036 128.817 95.1642 128.771 95.2016C128.733 95.2389 128.677 95.2576 128.603 95.2576H128.001C127.917 95.2576 127.842 95.2296 127.777 95.1736C127.721 95.1082 127.693 95.0336 127.693 94.9496C127.702 94.7256 127.805 94.4736 128.001 94.1936C128.206 93.9042 128.519 93.6569 128.939 93.4516C129.359 93.2369 129.877 93.1296 130.493 93.1296C131.538 93.1296 132.289 93.3769 132.747 93.8716C133.204 94.3569 133.433 94.9636 133.433 95.6916V100.228C133.433 100.321 133.4 100.4 133.335 100.466C133.279 100.522 133.204 100.55 133.111 100.55H132.467C132.373 100.55 132.294 100.522 132.229 100.466C132.173 100.4 132.145 100.321 132.145 100.228V99.6256C131.939 99.9242 131.641 100.176 131.249 100.382C130.857 100.587 130.357 100.69 129.751 100.69ZM130.045 99.6396C130.651 99.6396 131.146 99.4436 131.529 99.0516C131.921 98.6502 132.117 98.0762 132.117 97.3296V96.9376L130.493 97.1756C129.83 97.2689 129.331 97.4276 128.995 97.6516C128.659 97.8662 128.491 98.1416 128.491 98.4776C128.491 98.8509 128.645 99.1402 128.953 99.3456C129.261 99.5416 129.625 99.6396 130.045 99.6396ZM138.427 103.63C137.662 103.63 137.046 103.499 136.579 103.238C136.112 102.986 135.781 102.696 135.585 102.37C135.389 102.043 135.282 101.749 135.263 101.488C135.254 101.394 135.282 101.315 135.347 101.25C135.422 101.184 135.501 101.152 135.585 101.152H136.257C136.341 101.152 136.411 101.17 136.467 101.208C136.523 101.254 136.57 101.334 136.607 101.446C136.719 101.744 136.901 102.001 137.153 102.216C137.414 102.44 137.816 102.552 138.357 102.552C139.048 102.552 139.556 102.402 139.883 102.104C140.21 101.814 140.373 101.296 140.373 100.55V99.5976C140.13 99.9056 139.822 100.153 139.449 100.34C139.076 100.517 138.632 100.606 138.119 100.606C137.13 100.606 136.388 100.293 135.893 99.6676C135.408 99.0329 135.151 98.2302 135.123 97.2596L135.109 96.8676L135.123 96.4896C135.151 95.5282 135.412 94.7302 135.907 94.0956C136.402 93.4516 137.139 93.1296 138.119 93.1296C139.099 93.1296 139.864 93.4889 140.415 94.2076V93.6056C140.415 93.5122 140.443 93.4329 140.499 93.3676C140.564 93.3022 140.644 93.2696 140.737 93.2696H141.381C141.474 93.2696 141.554 93.3022 141.619 93.3676C141.684 93.4329 141.717 93.5122 141.717 93.6056V100.396C141.717 102.552 140.62 103.63 138.427 103.63ZM138.399 99.4856C139.034 99.4856 139.514 99.2756 139.841 98.8556C140.168 98.4356 140.345 97.9362 140.373 97.3576C140.382 97.2736 140.387 97.1102 140.387 96.8676C140.387 96.6342 140.382 96.4756 140.373 96.3916C140.345 95.8129 140.168 95.3136 139.841 94.8936C139.524 94.4736 139.043 94.2636 138.399 94.2636C137.736 94.2636 137.256 94.4689 136.957 94.8796C136.658 95.2902 136.495 95.8316 136.467 96.5036L136.453 96.8676L136.467 97.2456C136.495 97.9082 136.658 98.4496 136.957 98.8696C137.256 99.2802 137.736 99.4856 138.399 99.4856ZM146.711 100.69C145.749 100.69 144.979 100.396 144.401 99.8076C143.831 99.2102 143.519 98.3982 143.463 97.3716L143.449 96.8956L143.463 96.4336C143.528 95.4256 143.845 94.6229 144.415 94.0256C144.993 93.4282 145.754 93.1296 146.697 93.1296C147.733 93.1296 148.535 93.4609 149.105 94.1236C149.674 94.7769 149.959 95.6636 149.959 96.7836V97.0216C149.959 97.1149 149.926 97.1942 149.861 97.2596C149.805 97.3156 149.73 97.3436 149.637 97.3436H144.793V97.4696C144.821 98.0762 145.003 98.5942 145.339 99.0236C145.684 99.4436 146.137 99.6536 146.697 99.6536C147.126 99.6536 147.476 99.5696 147.747 99.4016C148.027 99.2242 148.232 99.0422 148.363 98.8556C148.447 98.7436 148.507 98.6782 148.545 98.6596C148.591 98.6316 148.671 98.6176 148.783 98.6176H149.469C149.553 98.6176 149.623 98.6409 149.679 98.6876C149.735 98.7342 149.763 98.7996 149.763 98.8836C149.763 99.0889 149.632 99.3362 149.371 99.6256C149.119 99.9149 148.759 100.167 148.293 100.382C147.835 100.587 147.308 100.69 146.711 100.69ZM148.629 96.3776V96.3356C148.629 95.6916 148.451 95.1689 148.097 94.7676C147.751 94.3569 147.285 94.1516 146.697 94.1516C146.109 94.1516 145.642 94.3569 145.297 94.7676C144.961 95.1689 144.793 95.6916 144.793 96.3356V96.3776H148.629Z" fill="#4F5665"/>
<path d="M11.3542 140.28C11.2229 140.28 11.0929 140.254 10.9716 140.204C10.8503 140.154 10.74 140.08 10.6472 139.988L6.40521 135.745C6.30964 135.652 6.23338 135.542 6.18089 135.42C6.12839 135.298 6.10072 135.167 6.09947 135.034C6.09822 134.901 6.12343 134.77 6.17363 134.647C6.22382 134.524 6.29799 134.412 6.39182 134.318C6.48565 134.224 6.59724 134.15 6.7201 134.1C6.84296 134.049 6.97462 134.024 7.1074 134.025C7.24018 134.026 7.37142 134.053 7.49346 134.106C7.6155 134.158 7.7259 134.234 7.81821 134.33L11.3532 137.865L17.7182 131.502C17.9057 131.314 18.1601 131.208 18.4254 131.208C18.6906 131.208 18.9451 131.314 19.1327 131.501C19.3204 131.689 19.4258 131.943 19.4259 132.208C19.426 132.473 19.3207 132.728 19.1332 132.916L12.0612 139.988C11.9684 140.08 11.8582 140.154 11.7368 140.204C11.6155 140.254 11.4855 140.28 11.3542 140.28Z" fill="#2FAB73"/>
<path d="M46.6718 140.55C46.5784 140.55 46.4991 140.522 46.4338 140.466C46.3778 140.4 46.3498 140.321 46.3498 140.228V131.086C46.3498 130.983 46.3778 130.904 46.4338 130.848C46.4991 130.782 46.5784 130.75 46.6718 130.75H49.8498C51.2591 130.75 52.2764 131.067 52.9018 131.702C53.5271 132.327 53.8538 133.274 53.8818 134.544C53.8911 134.814 53.8958 135.178 53.8958 135.636C53.8958 136.093 53.8911 136.462 53.8818 136.742C53.8538 137.628 53.7044 138.352 53.4338 138.912C53.1724 139.462 52.7571 139.873 52.1878 140.144C51.6184 140.414 50.8624 140.55 49.9198 140.55H46.6718ZM49.8498 139.36C50.4938 139.36 51.0024 139.271 51.3758 139.094C51.7584 138.916 52.0338 138.636 52.2018 138.254C52.3791 137.862 52.4771 137.339 52.4958 136.686C52.5144 136.126 52.5238 135.776 52.5238 135.636C52.5238 135.486 52.5144 135.141 52.4958 134.6C52.4771 133.676 52.2578 133.004 51.8378 132.584C51.4178 132.154 50.7318 131.94 49.7798 131.94H47.7218V139.36H49.8498ZM57.8501 140.69C57.3928 140.69 56.9681 140.596 56.5761 140.41C56.1841 140.223 55.8715 139.971 55.6381 139.654C55.4141 139.327 55.3021 138.968 55.3021 138.576C55.3021 137.96 55.5541 137.456 56.0581 137.064C56.5715 136.662 57.2621 136.401 58.1301 136.28L60.2161 135.986V135.58C60.2161 134.628 59.6701 134.152 58.5781 134.152C58.1675 134.152 57.8315 134.24 57.5701 134.418C57.3088 134.586 57.1128 134.786 56.9821 135.02C56.9541 135.104 56.9168 135.164 56.8701 135.202C56.8328 135.239 56.7768 135.258 56.7021 135.258H56.1001C56.0161 135.258 55.9415 135.23 55.8761 135.174C55.8201 135.108 55.7921 135.034 55.7921 134.95C55.8015 134.726 55.9041 134.474 56.1001 134.194C56.3055 133.904 56.6181 133.657 57.0381 133.452C57.4581 133.237 57.9761 133.13 58.5921 133.13C59.6375 133.13 60.3888 133.377 60.8461 133.872C61.3035 134.357 61.5321 134.964 61.5321 135.692V140.228C61.5321 140.321 61.4995 140.4 61.4341 140.466C61.3781 140.522 61.3035 140.55 61.2101 140.55H60.5661C60.4728 140.55 60.3935 140.522 60.3281 140.466C60.2721 140.4 60.2441 140.321 60.2441 140.228V139.626C60.0388 139.924 59.7401 140.176 59.3481 140.382C58.9561 140.587 58.4568 140.69 57.8501 140.69ZM58.1441 139.64C58.7508 139.64 59.2455 139.444 59.6281 139.052C60.0201 138.65 60.2161 138.076 60.2161 137.33V136.938L58.5921 137.176C57.9295 137.269 57.4301 137.428 57.0941 137.652C56.7581 137.866 56.5901 138.142 56.5901 138.478C56.5901 138.851 56.7441 139.14 57.0521 139.346C57.3601 139.542 57.7241 139.64 58.1441 139.64ZM63.7547 131.912C63.6614 131.912 63.5821 131.884 63.5167 131.828C63.4607 131.762 63.4327 131.683 63.4327 131.59V130.834C63.4327 130.74 63.4607 130.661 63.5167 130.596C63.5821 130.53 63.6614 130.498 63.7547 130.498H64.6367C64.7301 130.498 64.8094 130.53 64.8747 130.596C64.9401 130.661 64.9727 130.74 64.9727 130.834V131.59C64.9727 131.683 64.9401 131.762 64.8747 131.828C64.8094 131.884 64.7301 131.912 64.6367 131.912H63.7547ZM63.8667 140.55C63.7734 140.55 63.6941 140.522 63.6287 140.466C63.5727 140.4 63.5447 140.321 63.5447 140.228V133.592C63.5447 133.498 63.5727 133.424 63.6287 133.368C63.6941 133.302 63.7734 133.27 63.8667 133.27H64.5387C64.6321 133.27 64.7067 133.302 64.7627 133.368C64.8281 133.424 64.8607 133.498 64.8607 133.592V140.228C64.8607 140.321 64.8281 140.4 64.7627 140.466C64.7067 140.522 64.6321 140.55 64.5387 140.55H63.8667ZM67.2714 140.55C67.178 140.55 67.0987 140.522 67.0334 140.466C66.9774 140.4 66.9494 140.321 66.9494 140.228V130.932C66.9494 130.838 66.9774 130.764 67.0334 130.708C67.0987 130.642 67.178 130.61 67.2714 130.61H67.9294C68.0227 130.61 68.0974 130.642 68.1534 130.708C68.2187 130.764 68.2514 130.838 68.2514 130.932V140.228C68.2514 140.321 68.2187 140.4 68.1534 140.466C68.0974 140.522 68.0227 140.55 67.9294 140.55H67.2714ZM71.6136 143.21C71.539 143.21 71.4736 143.182 71.4177 143.126C71.3617 143.07 71.3337 143.004 71.3337 142.93C71.3337 142.864 71.357 142.78 71.4036 142.678L72.4817 140.116L69.8076 133.802C69.761 133.68 69.7376 133.601 69.7376 133.564C69.7376 133.48 69.7656 133.41 69.8216 133.354C69.8776 133.298 69.9476 133.27 70.0316 133.27H70.7176C70.867 133.27 70.979 133.349 71.0536 133.508L73.1817 138.604L75.3657 133.508C75.4403 133.349 75.557 133.27 75.7157 133.27H76.3736C76.4576 133.27 76.5277 133.298 76.5837 133.354C76.6397 133.41 76.6677 133.475 76.6677 133.55C76.6677 133.578 76.6443 133.662 76.5977 133.802L72.6217 142.972C72.547 143.13 72.4303 143.21 72.2717 143.21H71.6136ZM84.4588 140.69C83.6841 140.69 83.0121 140.568 82.4428 140.326C81.8828 140.083 81.4534 139.766 81.1548 139.374C80.8561 138.972 80.6974 138.543 80.6788 138.086C80.6788 138.011 80.7068 137.946 80.7628 137.89C80.8281 137.824 80.9028 137.792 80.9868 137.792H81.7008C81.8781 137.792 81.9994 137.885 82.0648 138.072C82.1488 138.464 82.3868 138.8 82.7788 139.08C83.1801 139.36 83.7401 139.5 84.4588 139.5C85.2334 139.5 85.8168 139.364 86.2088 139.094C86.6008 138.814 86.7968 138.426 86.7968 137.932C86.7968 137.614 86.6988 137.358 86.5028 137.162C86.3161 136.966 86.0361 136.793 85.6628 136.644C85.2894 136.494 84.7294 136.308 83.9828 136.084C83.2548 135.878 82.6761 135.659 82.2468 135.426C81.8174 135.192 81.4954 134.903 81.2808 134.558C81.0661 134.212 80.9588 133.778 80.9588 133.256C80.9588 132.752 81.0941 132.299 81.3648 131.898C81.6448 131.496 82.0414 131.184 82.5548 130.96C83.0681 130.726 83.6794 130.61 84.3888 130.61C85.1168 130.61 85.7421 130.74 86.2648 131.002C86.7874 131.254 87.1841 131.576 87.4548 131.968C87.7254 132.36 87.8701 132.752 87.8888 133.144C87.8888 133.218 87.8608 133.284 87.8048 133.34C87.7581 133.396 87.6881 133.424 87.5948 133.424H86.8528C86.6568 133.424 86.5354 133.335 86.4888 133.158C86.4328 132.766 86.2134 132.444 85.8308 132.192C85.4481 131.93 84.9674 131.8 84.3888 131.8C83.7541 131.8 83.2548 131.921 82.8908 132.164C82.5268 132.406 82.3448 132.766 82.3448 133.242C82.3448 133.559 82.4288 133.82 82.5968 134.026C82.7741 134.231 83.0401 134.413 83.3948 134.572C83.7494 134.721 84.2674 134.894 84.9488 135.09C85.7421 135.304 86.3674 135.528 86.8248 135.762C87.2821 135.986 87.6228 136.27 87.8468 136.616C88.0708 136.952 88.1828 137.381 88.1828 137.904C88.1828 138.772 87.8468 139.453 87.1748 139.948C86.5028 140.442 85.5974 140.69 84.4588 140.69ZM92.6777 140.55C91.2031 140.55 90.4657 139.728 90.4657 138.086V134.39H89.3737C89.2804 134.39 89.2011 134.362 89.1357 134.306C89.0797 134.24 89.0517 134.161 89.0517 134.068V133.592C89.0517 133.498 89.0797 133.424 89.1357 133.368C89.2011 133.302 89.2804 133.27 89.3737 133.27H90.4657V130.932C90.4657 130.838 90.4937 130.764 90.5497 130.708C90.6151 130.642 90.6944 130.61 90.7877 130.61H91.4457C91.5391 130.61 91.6137 130.642 91.6697 130.708C91.7351 130.764 91.7677 130.838 91.7677 130.932V133.27H93.5037C93.5971 133.27 93.6717 133.302 93.7277 133.368C93.7931 133.424 93.8257 133.498 93.8257 133.592V134.068C93.8257 134.161 93.7931 134.24 93.7277 134.306C93.6717 134.362 93.5971 134.39 93.5037 134.39H91.7677V137.988C91.7677 138.454 91.8471 138.809 92.0057 139.052C92.1644 139.285 92.4257 139.402 92.7897 139.402H93.6437C93.7371 139.402 93.8117 139.434 93.8677 139.5C93.9331 139.556 93.9657 139.63 93.9657 139.724V140.228C93.9657 140.321 93.9331 140.4 93.8677 140.466C93.8117 140.522 93.7371 140.55 93.6437 140.55H92.6777ZM97.3345 140.69C96.8772 140.69 96.4525 140.596 96.0605 140.41C95.6685 140.223 95.3558 139.971 95.1225 139.654C94.8985 139.327 94.7865 138.968 94.7865 138.576C94.7865 137.96 95.0385 137.456 95.5425 137.064C96.0558 136.662 96.7465 136.401 97.6145 136.28L99.7005 135.986V135.58C99.7005 134.628 99.1545 134.152 98.0625 134.152C97.6518 134.152 97.3158 134.24 97.0545 134.418C96.7932 134.586 96.5972 134.786 96.4665 135.02C96.4385 135.104 96.4012 135.164 96.3545 135.202C96.3172 135.239 96.2612 135.258 96.1865 135.258H95.5845C95.5005 135.258 95.4258 135.23 95.3605 135.174C95.3045 135.108 95.2765 135.034 95.2765 134.95C95.2858 134.726 95.3885 134.474 95.5845 134.194C95.7898 133.904 96.1025 133.657 96.5225 133.452C96.9425 133.237 97.4605 133.13 98.0765 133.13C99.1218 133.13 99.8732 133.377 100.33 133.872C100.788 134.357 101.016 134.964 101.016 135.692V140.228C101.016 140.321 100.984 140.4 100.918 140.466C100.862 140.522 100.788 140.55 100.694 140.55H100.05C99.9572 140.55 99.8778 140.522 99.8125 140.466C99.7565 140.4 99.7285 140.321 99.7285 140.228V139.626C99.5232 139.924 99.2245 140.176 98.8325 140.382C98.4405 140.587 97.9412 140.69 97.3345 140.69ZM97.6285 139.64C98.2352 139.64 98.7298 139.444 99.1125 139.052C99.5045 138.65 99.7005 138.076 99.7005 137.33V136.938L98.0765 137.176C97.4138 137.269 96.9145 137.428 96.5785 137.652C96.2425 137.866 96.0745 138.142 96.0745 138.478C96.0745 138.851 96.2285 139.14 96.5365 139.346C96.8445 139.542 97.2085 139.64 97.6285 139.64ZM105.803 140.55C104.328 140.55 103.591 139.728 103.591 138.086V134.39H102.499C102.405 134.39 102.326 134.362 102.261 134.306C102.205 134.24 102.177 134.161 102.177 134.068V133.592C102.177 133.498 102.205 133.424 102.261 133.368C102.326 133.302 102.405 133.27 102.499 133.27H103.591V130.932C103.591 130.838 103.619 130.764 103.675 130.708C103.74 130.642 103.819 130.61 103.913 130.61H104.571C104.664 130.61 104.739 130.642 104.795 130.708C104.86 130.764 104.893 130.838 104.893 130.932V133.27H106.629C106.722 133.27 106.797 133.302 106.853 133.368C106.918 133.424 106.951 133.498 106.951 133.592V134.068C106.951 134.161 106.918 134.24 106.853 134.306C106.797 134.362 106.722 134.39 106.629 134.39H104.893V137.988C104.893 138.454 104.972 138.809 105.131 139.052C105.289 139.285 105.551 139.402 105.915 139.402H106.769C106.862 139.402 106.937 139.434 106.993 139.5C107.058 139.556 107.091 139.63 107.091 139.724V140.228C107.091 140.321 107.058 140.4 106.993 140.466C106.937 140.522 106.862 140.55 106.769 140.55H105.803ZM110.949 140.69C110.296 140.69 109.745 140.587 109.297 140.382C108.859 140.167 108.527 139.924 108.303 139.654C108.089 139.383 107.981 139.159 107.981 138.982C107.981 138.888 108.014 138.818 108.079 138.772C108.154 138.716 108.229 138.688 108.303 138.688H108.933C109.027 138.688 109.111 138.734 109.185 138.828C109.409 139.089 109.652 139.294 109.913 139.444C110.175 139.593 110.525 139.668 110.963 139.668C111.449 139.668 111.841 139.574 112.139 139.388C112.447 139.192 112.601 138.926 112.601 138.59C112.601 138.366 112.536 138.184 112.405 138.044C112.284 137.894 112.069 137.768 111.761 137.666C111.463 137.554 111.015 137.432 110.417 137.302C109.605 137.124 109.027 136.868 108.681 136.532C108.345 136.196 108.177 135.762 108.177 135.23C108.177 134.875 108.28 134.539 108.485 134.222C108.7 133.895 109.008 133.634 109.409 133.438C109.82 133.232 110.31 133.13 110.879 133.13C111.477 133.13 111.985 133.228 112.405 133.424C112.825 133.62 113.138 133.853 113.343 134.124C113.558 134.385 113.665 134.604 113.665 134.782C113.665 134.866 113.633 134.936 113.567 134.992C113.511 135.048 113.441 135.076 113.357 135.076H112.769C112.657 135.076 112.564 135.029 112.489 134.936C112.34 134.758 112.209 134.623 112.097 134.53C111.995 134.427 111.841 134.338 111.635 134.264C111.439 134.189 111.187 134.152 110.879 134.152C110.431 134.152 110.086 134.25 109.843 134.446C109.601 134.632 109.479 134.88 109.479 135.188C109.479 135.384 109.531 135.552 109.633 135.692C109.736 135.822 109.932 135.944 110.221 136.056C110.52 136.168 110.949 136.284 111.509 136.406C112.396 136.592 113.021 136.863 113.385 137.218C113.759 137.563 113.945 138.006 113.945 138.548C113.945 138.949 113.829 139.313 113.595 139.64C113.362 139.966 113.017 140.223 112.559 140.41C112.111 140.596 111.575 140.69 110.949 140.69ZM121.98 140.69C121.345 140.69 120.781 140.573 120.286 140.34C119.801 140.106 119.423 139.78 119.152 139.36C118.881 138.94 118.746 138.464 118.746 137.932C118.746 137.344 118.919 136.844 119.264 136.434C119.609 136.014 120.095 135.622 120.72 135.258C120.281 134.791 119.969 134.385 119.782 134.04C119.605 133.685 119.516 133.312 119.516 132.92C119.516 132.5 119.623 132.117 119.838 131.772C120.053 131.417 120.361 131.137 120.762 130.932C121.163 130.717 121.621 130.61 122.134 130.61C122.638 130.61 123.086 130.712 123.478 130.918C123.87 131.114 124.173 131.389 124.388 131.744C124.603 132.089 124.71 132.476 124.71 132.906C124.71 133.475 124.528 133.951 124.164 134.334C123.8 134.716 123.273 135.104 122.582 135.496L124.962 137.834C125.335 137.208 125.587 136.499 125.718 135.706C125.727 135.622 125.755 135.556 125.802 135.51C125.858 135.454 125.928 135.426 126.012 135.426H126.628C126.712 135.426 126.782 135.454 126.838 135.51C126.894 135.566 126.922 135.636 126.922 135.72C126.913 136.13 126.805 136.602 126.6 137.134C126.404 137.656 126.133 138.16 125.788 138.646L127.216 140.074C127.3 140.158 127.342 140.228 127.342 140.284C127.342 140.461 127.249 140.55 127.062 140.55H126.278C126.101 140.55 125.975 140.503 125.9 140.41L124.976 139.5C124.164 140.293 123.165 140.69 121.98 140.69ZM121.812 134.684C122.372 134.376 122.792 134.096 123.072 133.844C123.352 133.592 123.492 133.284 123.492 132.92C123.492 132.556 123.361 132.262 123.1 132.038C122.839 131.804 122.517 131.688 122.134 131.688C121.761 131.688 121.439 131.804 121.168 132.038C120.907 132.262 120.776 132.56 120.776 132.934C120.776 133.186 120.846 133.438 120.986 133.69C121.135 133.932 121.411 134.264 121.812 134.684ZM121.98 139.57C122.363 139.57 122.741 139.49 123.114 139.332C123.487 139.173 123.828 138.94 124.136 138.632L121.518 136.084C121.042 136.354 120.673 136.63 120.412 136.91C120.16 137.19 120.034 137.521 120.034 137.904C120.034 138.417 120.225 138.823 120.608 139.122C120.991 139.42 121.448 139.57 121.98 139.57ZM134.866 140.69C133.98 140.69 133.294 140.405 132.808 139.836C132.323 139.257 132.08 138.492 132.08 137.54V133.592C132.08 133.498 132.108 133.424 132.164 133.368C132.23 133.302 132.309 133.27 132.402 133.27H133.102C133.196 133.27 133.27 133.302 133.326 133.368C133.392 133.424 133.424 133.498 133.424 133.592V137.47C133.424 138.86 134.031 139.556 135.244 139.556C135.832 139.556 136.299 139.374 136.644 139.01C136.99 138.636 137.162 138.123 137.162 137.47V133.592C137.162 133.498 137.19 133.424 137.246 133.368C137.312 133.302 137.391 133.27 137.484 133.27H138.184C138.278 133.27 138.352 133.302 138.408 133.368C138.464 133.424 138.492 133.498 138.492 133.592V140.228C138.492 140.321 138.464 140.4 138.408 140.466C138.352 140.522 138.278 140.55 138.184 140.55H137.526C137.433 140.55 137.354 140.522 137.288 140.466C137.232 140.4 137.204 140.321 137.204 140.228V139.612C136.943 139.966 136.626 140.237 136.252 140.424C135.879 140.601 135.417 140.69 134.866 140.69ZM140.908 143.21C140.815 143.21 140.735 143.177 140.67 143.112C140.614 143.056 140.586 142.981 140.586 142.888V133.592C140.586 133.498 140.614 133.424 140.67 133.368C140.735 133.302 140.815 133.27 140.908 133.27H141.552C141.645 133.27 141.72 133.302 141.776 133.368C141.841 133.424 141.874 133.498 141.874 133.592V134.208C142.397 133.489 143.162 133.13 144.17 133.13C145.15 133.13 145.883 133.438 146.368 134.054C146.863 134.67 147.129 135.463 147.166 136.434C147.175 136.536 147.18 136.695 147.18 136.91C147.18 137.124 147.175 137.283 147.166 137.386C147.129 138.347 146.863 139.14 146.368 139.766C145.873 140.382 145.141 140.69 144.17 140.69C143.199 140.69 142.443 140.34 141.902 139.64V142.888C141.902 142.981 141.874 143.056 141.818 143.112C141.762 143.177 141.687 143.21 141.594 143.21H140.908ZM143.876 139.556C144.539 139.556 145.019 139.35 145.318 138.94C145.626 138.529 145.794 137.988 145.822 137.316C145.831 137.222 145.836 137.087 145.836 136.91C145.836 135.146 145.183 134.264 143.876 134.264C143.232 134.264 142.747 134.478 142.42 134.908C142.103 135.328 141.93 135.832 141.902 136.42L141.888 136.952L141.902 137.498C141.921 138.048 142.098 138.529 142.434 138.94C142.77 139.35 143.251 139.556 143.876 139.556ZM151.572 140.69C150.601 140.69 149.869 140.372 149.374 139.738C148.879 139.103 148.618 138.3 148.59 137.33L148.576 136.91L148.59 136.49C148.618 135.528 148.879 134.73 149.374 134.096C149.869 133.452 150.601 133.13 151.572 133.13C152.533 133.13 153.289 133.47 153.84 134.152V130.932C153.84 130.838 153.868 130.764 153.924 130.708C153.989 130.642 154.069 130.61 154.162 130.61H154.834C154.927 130.61 155.002 130.642 155.058 130.708C155.123 130.764 155.156 130.838 155.156 130.932V140.228C155.156 140.321 155.123 140.4 155.058 140.466C155.002 140.522 154.927 140.55 154.834 140.55H154.204C154.111 140.55 154.031 140.522 153.966 140.466C153.91 140.4 153.882 140.321 153.882 140.228V139.64C153.341 140.34 152.571 140.69 151.572 140.69ZM151.866 139.556C152.51 139.556 152.991 139.346 153.308 138.926C153.635 138.496 153.812 137.988 153.84 137.4C153.849 137.297 153.854 137.12 153.854 136.868C153.854 136.606 153.849 136.424 153.84 136.322C153.821 135.771 153.644 135.29 153.308 134.88C152.972 134.469 152.491 134.264 151.866 134.264C151.203 134.264 150.718 134.469 150.41 134.88C150.111 135.29 149.948 135.832 149.92 136.504L149.906 136.91C149.906 138.674 150.559 139.556 151.866 139.556ZM159.268 140.69C158.811 140.69 158.386 140.596 157.994 140.41C157.602 140.223 157.289 139.971 157.056 139.654C156.832 139.327 156.72 138.968 156.72 138.576C156.72 137.96 156.972 137.456 157.476 137.064C157.989 136.662 158.68 136.401 159.548 136.28L161.634 135.986V135.58C161.634 134.628 161.088 134.152 159.996 134.152C159.585 134.152 159.249 134.24 158.988 134.418C158.727 134.586 158.531 134.786 158.4 135.02C158.372 135.104 158.335 135.164 158.288 135.202C158.251 135.239 158.195 135.258 158.12 135.258H157.518C157.434 135.258 157.359 135.23 157.294 135.174C157.238 135.108 157.21 135.034 157.21 134.95C157.219 134.726 157.322 134.474 157.518 134.194C157.723 133.904 158.036 133.657 158.456 133.452C158.876 133.237 159.394 133.13 160.01 133.13C161.055 133.13 161.807 133.377 162.264 133.872C162.721 134.357 162.95 134.964 162.95 135.692V140.228C162.95 140.321 162.917 140.4 162.852 140.466C162.796 140.522 162.721 140.55 162.628 140.55H161.984C161.891 140.55 161.811 140.522 161.746 140.466C161.69 140.4 161.662 140.321 161.662 140.228V139.626C161.457 139.924 161.158 140.176 160.766 140.382C160.374 140.587 159.875 140.69 159.268 140.69ZM159.562 139.64C160.169 139.64 160.663 139.444 161.046 139.052C161.438 138.65 161.634 138.076 161.634 137.33V136.938L160.01 137.176C159.347 137.269 158.848 137.428 158.512 137.652C158.176 137.866 158.008 138.142 158.008 138.478C158.008 138.851 158.162 139.14 158.47 139.346C158.778 139.542 159.142 139.64 159.562 139.64ZM167.736 140.55C166.262 140.55 165.524 139.728 165.524 138.086V134.39H164.432C164.339 134.39 164.26 134.362 164.194 134.306C164.138 134.24 164.11 134.161 164.11 134.068V133.592C164.11 133.498 164.138 133.424 164.194 133.368C164.26 133.302 164.339 133.27 164.432 133.27H165.524V130.932C165.524 130.838 165.552 130.764 165.608 130.708C165.674 130.642 165.753 130.61 165.846 130.61H166.504C166.598 130.61 166.672 130.642 166.728 130.708C166.794 130.764 166.826 130.838 166.826 130.932V133.27H168.562C168.656 133.27 168.73 133.302 168.786 133.368C168.852 133.424 168.884 133.498 168.884 133.592V134.068C168.884 134.161 168.852 134.24 168.786 134.306C168.73 134.362 168.656 134.39 168.562 134.39H166.826V137.988C166.826 138.454 166.906 138.809 167.064 139.052C167.223 139.285 167.484 139.402 167.848 139.402H168.702C168.796 139.402 168.87 139.434 168.926 139.5C168.992 139.556 169.024 139.63 169.024 139.724V140.228C169.024 140.321 168.992 140.4 168.926 140.466C168.87 140.522 168.796 140.55 168.702 140.55H167.736ZM173.275 140.69C172.314 140.69 171.544 140.396 170.965 139.808C170.396 139.21 170.083 138.398 170.027 137.372L170.013 136.896L170.027 136.434C170.092 135.426 170.41 134.623 170.979 134.026C171.558 133.428 172.318 133.13 173.261 133.13C174.297 133.13 175.1 133.461 175.669 134.124C176.238 134.777 176.523 135.664 176.523 136.784V137.022C176.523 137.115 176.49 137.194 176.425 137.26C176.369 137.316 176.294 137.344 176.201 137.344H171.357V137.47C171.385 138.076 171.567 138.594 171.903 139.024C172.248 139.444 172.701 139.654 173.261 139.654C173.69 139.654 174.04 139.57 174.311 139.402C174.591 139.224 174.796 139.042 174.927 138.856C175.011 138.744 175.072 138.678 175.109 138.66C175.156 138.632 175.235 138.618 175.347 138.618H176.033C176.117 138.618 176.187 138.641 176.243 138.688C176.299 138.734 176.327 138.8 176.327 138.884C176.327 139.089 176.196 139.336 175.935 139.626C175.683 139.915 175.324 140.167 174.857 140.382C174.4 140.587 173.872 140.69 173.275 140.69ZM175.193 136.378V136.336C175.193 135.692 175.016 135.169 174.661 134.768C174.316 134.357 173.849 134.152 173.261 134.152C172.673 134.152 172.206 134.357 171.861 134.768C171.525 135.169 171.357 135.692 171.357 136.336V136.378H175.193ZM180.717 140.69C180.064 140.69 179.513 140.587 179.065 140.382C178.626 140.167 178.295 139.924 178.071 139.654C177.856 139.383 177.749 139.159 177.749 138.982C177.749 138.888 177.782 138.818 177.847 138.772C177.922 138.716 177.996 138.688 178.071 138.688H178.701C178.794 138.688 178.878 138.734 178.953 138.828C179.177 139.089 179.42 139.294 179.681 139.444C179.942 139.593 180.292 139.668 180.731 139.668C181.216 139.668 181.608 139.574 181.907 139.388C182.215 139.192 182.369 138.926 182.369 138.59C182.369 138.366 182.304 138.184 182.173 138.044C182.052 137.894 181.837 137.768 181.529 137.666C181.23 137.554 180.782 137.432 180.185 137.302C179.373 137.124 178.794 136.868 178.449 136.532C178.113 136.196 177.945 135.762 177.945 135.23C177.945 134.875 178.048 134.539 178.253 134.222C178.468 133.895 178.776 133.634 179.177 133.438C179.588 133.232 180.078 133.13 180.647 133.13C181.244 133.13 181.753 133.228 182.173 133.424C182.593 133.62 182.906 133.853 183.111 134.124C183.326 134.385 183.433 134.604 183.433 134.782C183.433 134.866 183.4 134.936 183.335 134.992C183.279 135.048 183.209 135.076 183.125 135.076H182.537C182.425 135.076 182.332 135.029 182.257 134.936C182.108 134.758 181.977 134.623 181.865 134.53C181.762 134.427 181.608 134.338 181.403 134.264C181.207 134.189 180.955 134.152 180.647 134.152C180.199 134.152 179.854 134.25 179.611 134.446C179.368 134.632 179.247 134.88 179.247 135.188C179.247 135.384 179.298 135.552 179.401 135.692C179.504 135.822 179.7 135.944 179.989 136.056C180.288 136.168 180.717 136.284 181.277 136.406C182.164 136.592 182.789 136.863 183.153 137.218C183.526 137.563 183.713 138.006 183.713 138.548C183.713 138.949 183.596 139.313 183.363 139.64C183.13 139.966 182.784 140.223 182.327 140.41C181.879 140.596 181.342 140.69 180.717 140.69Z" fill="#4F5665"/>
<path d="M48.9958 20.5496C48.9024 20.5496 48.8231 20.5216 48.7578 20.4656C48.7018 20.4002 48.6738 20.3209 48.6738 20.2276V12.3876L46.3498 14.1796C46.2844 14.2356 46.2144 14.2636 46.1398 14.2636C46.0558 14.2636 45.9764 14.2169 45.9018 14.1236L45.5378 13.6616C45.4911 13.5962 45.4678 13.5309 45.4678 13.4656C45.4678 13.3536 45.5144 13.2649 45.6078 13.1996L48.6598 10.8476C48.7624 10.7822 48.8838 10.7496 49.0238 10.7496H49.7378C49.8311 10.7496 49.9058 10.7822 49.9618 10.8476C50.0271 10.9036 50.0598 10.9782 50.0598 11.0716V20.2276C50.0598 20.3209 50.0271 20.4002 49.9618 20.4656C49.9058 20.5216 49.8311 20.5496 49.7378 20.5496H48.9958ZM55.5581 20.6896C54.3541 20.6896 53.4721 20.3396 52.9121 19.6396C52.3521 18.9396 52.0534 18.0202 52.0161 16.8816C52.0067 16.6296 52.0021 16.2236 52.0021 15.6636C52.0021 15.0849 52.0067 14.6649 52.0161 14.4036C52.0441 13.2836 52.3427 12.3736 52.9121 11.6736C53.4814 10.9642 54.3634 10.6096 55.5581 10.6096C56.7621 10.6096 57.6487 10.9642 58.2181 11.6736C58.7874 12.3736 59.0861 13.2836 59.1141 14.4036C59.1327 14.9262 59.1421 15.3462 59.1421 15.6636C59.1421 15.9716 59.1327 16.3776 59.1141 16.8816C59.0767 18.0202 58.7781 18.9396 58.2181 19.6396C57.6581 20.3396 56.7714 20.6896 55.5581 20.6896ZM55.5581 19.4856C56.2581 19.4856 56.7854 19.2522 57.1401 18.7856C57.5041 18.3189 57.6954 17.6609 57.7141 16.8116C57.7327 16.2702 57.7421 15.8782 57.7421 15.6356C57.7421 15.3742 57.7327 14.9916 57.7141 14.4876C57.6954 13.6476 57.5087 12.9896 57.1541 12.5136C56.7994 12.0376 56.2674 11.7996 55.5581 11.7996C54.8581 11.7996 54.3261 12.0376 53.9621 12.5136C53.6074 12.9896 53.4207 13.6476 53.4021 14.4876L53.3881 15.6356L53.4021 16.8116C53.4207 17.6609 53.6074 18.3189 53.9621 18.7856C54.3261 19.2522 54.8581 19.4856 55.5581 19.4856ZM64.9784 20.5496C64.8851 20.5496 64.8057 20.5216 64.7404 20.4656C64.6844 20.4002 64.6564 20.3209 64.6564 20.2276V11.0716C64.6564 10.9782 64.6844 10.9036 64.7404 10.8476C64.8057 10.7822 64.8851 10.7496 64.9784 10.7496H65.7204C65.8137 10.7496 65.8884 10.7822 65.9444 10.8476C66.0097 10.9036 66.0424 10.9782 66.0424 11.0716V20.2276C66.0424 20.3209 66.0097 20.4002 65.9444 20.4656C65.8884 20.5216 65.8137 20.5496 65.7204 20.5496H64.9784ZM68.6245 20.5496C68.5312 20.5496 68.4519 20.5216 68.3865 20.4656C68.3305 20.4002 68.3025 20.3209 68.3025 20.2276V13.5916C68.3025 13.4982 68.3305 13.4236 68.3865 13.3676C68.4519 13.3022 68.5312 13.2696 68.6245 13.2696H69.2825C69.3759 13.2696 69.4505 13.3022 69.5065 13.3676C69.5719 13.4236 69.6045 13.4982 69.6045 13.5916V14.2076C69.8752 13.8622 70.1925 13.5962 70.5565 13.4096C70.9299 13.2229 71.3919 13.1296 71.9425 13.1296C72.8385 13.1296 73.5339 13.4189 74.0285 13.9976C74.5325 14.5669 74.7845 15.3276 74.7845 16.2796V20.2276C74.7845 20.3209 74.7519 20.4002 74.6865 20.4656C74.6305 20.5216 74.5559 20.5496 74.4625 20.5496H73.7625C73.6692 20.5496 73.5899 20.5216 73.5245 20.4656C73.4685 20.4002 73.4405 20.3209 73.4405 20.2276V16.3496C73.4405 15.6869 73.2772 15.1736 72.9505 14.8096C72.6332 14.4456 72.1712 14.2636 71.5645 14.2636C70.9765 14.2636 70.5099 14.4502 70.1645 14.8236C69.8192 15.1876 69.6465 15.6962 69.6465 16.3496V20.2276C69.6465 20.3209 69.6139 20.4002 69.5485 20.4656C69.4925 20.5216 69.4179 20.5496 69.3245 20.5496H68.6245ZM80.3908 20.6896C79.3828 20.6896 78.6174 20.3396 78.0948 19.6396V20.2276C78.0948 20.3209 78.0621 20.4002 77.9968 20.4656C77.9408 20.5216 77.8661 20.5496 77.7728 20.5496H77.1288C77.0354 20.5496 76.9561 20.5216 76.8908 20.4656C76.8348 20.4002 76.8068 20.3209 76.8068 20.2276V10.9316C76.8068 10.8382 76.8348 10.7636 76.8908 10.7076C76.9561 10.6422 77.0354 10.6096 77.1288 10.6096H77.8148C77.9081 10.6096 77.9828 10.6422 78.0388 10.7076C78.0948 10.7636 78.1228 10.8382 78.1228 10.9316V14.1516C78.6734 13.4702 79.4294 13.1296 80.3908 13.1296C81.3614 13.1296 82.0941 13.4516 82.5888 14.0956C83.0834 14.7302 83.3494 15.5282 83.3868 16.4896C83.3961 16.5922 83.4008 16.7322 83.4008 16.9096C83.4008 17.0869 83.3961 17.2269 83.3868 17.3296C83.3494 18.3002 83.0834 19.1029 82.5888 19.7376C82.0941 20.3722 81.3614 20.6896 80.3908 20.6896ZM80.0968 19.5556C80.7594 19.5556 81.2401 19.3502 81.5388 18.9396C81.8468 18.5289 82.0148 17.9876 82.0428 17.3156C82.0521 17.2222 82.0568 17.0869 82.0568 16.9096C82.0568 15.1456 81.4034 14.2636 80.0968 14.2636C79.4714 14.2636 78.9908 14.4689 78.6548 14.8796C78.3188 15.2902 78.1414 15.7709 78.1228 16.3216L78.1088 16.8676L78.1228 17.3996C78.1508 17.9876 78.3234 18.4962 78.6408 18.9256C78.9674 19.3456 79.4528 19.5556 80.0968 19.5556ZM88.1009 20.6896C87.0743 20.6896 86.2763 20.4002 85.7069 19.8216C85.1469 19.2429 84.8483 18.4729 84.8109 17.5116L84.7969 16.9096L84.8109 16.3076C84.8483 15.3556 85.1516 14.5902 85.7209 14.0116C86.2903 13.4236 87.0836 13.1296 88.1009 13.1296C89.1183 13.1296 89.9116 13.4236 90.4809 14.0116C91.0503 14.5902 91.3536 15.3556 91.3909 16.3076C91.4003 16.4102 91.4049 16.6109 91.4049 16.9096C91.4049 17.2082 91.4003 17.4089 91.3909 17.5116C91.3536 18.4729 91.0503 19.2429 90.4809 19.8216C89.9209 20.4002 89.1276 20.6896 88.1009 20.6896ZM88.1009 19.6116C88.6889 19.6116 89.1509 19.4249 89.4869 19.0516C89.8323 18.6782 90.0189 18.1416 90.0469 17.4416C90.0563 17.3482 90.0609 17.1709 90.0609 16.9096C90.0609 16.6482 90.0563 16.4709 90.0469 16.3776C90.0189 15.6776 89.8323 15.1409 89.4869 14.7676C89.1509 14.3942 88.6889 14.2076 88.1009 14.2076C87.5129 14.2076 87.0463 14.3942 86.7009 14.7676C86.3556 15.1409 86.1736 15.6776 86.1549 16.3776L86.1409 16.9096L86.1549 17.4416C86.1736 18.1416 86.3556 18.6782 86.7009 19.0516C87.0463 19.4249 87.5129 19.6116 88.1009 19.6116ZM95.874 20.6896C94.9873 20.6896 94.3013 20.4049 93.816 19.8356C93.3307 19.2569 93.088 18.4916 93.088 17.5396V13.5916C93.088 13.4982 93.116 13.4236 93.172 13.3676C93.2373 13.3022 93.3167 13.2696 93.41 13.2696H94.11C94.2033 13.2696 94.278 13.3022 94.334 13.3676C94.3993 13.4236 94.432 13.4982 94.432 13.5916V17.4696C94.432 18.8602 95.0387 19.5556 96.252 19.5556C96.84 19.5556 97.3067 19.3736 97.652 19.0096C97.9973 18.6362 98.17 18.1229 98.17 17.4696V13.5916C98.17 13.4982 98.198 13.4236 98.254 13.3676C98.3193 13.3022 98.3987 13.2696 98.492 13.2696H99.192C99.2853 13.2696 99.36 13.3022 99.416 13.3676C99.472 13.4236 99.5 13.4982 99.5 13.5916V20.2276C99.5 20.3209 99.472 20.4002 99.416 20.4656C99.36 20.5216 99.2853 20.5496 99.192 20.5496H98.534C98.4407 20.5496 98.3613 20.5216 98.296 20.4656C98.24 20.4002 98.212 20.3209 98.212 20.2276V19.6116C97.9507 19.9662 97.6333 20.2369 97.26 20.4236C96.8867 20.6009 96.4247 20.6896 95.874 20.6896ZM101.902 20.5496C101.809 20.5496 101.729 20.5216 101.664 20.4656C101.608 20.4002 101.58 20.3209 101.58 20.2276V13.5916C101.58 13.4982 101.608 13.4236 101.664 13.3676C101.729 13.3022 101.809 13.2696 101.902 13.2696H102.56C102.653 13.2696 102.728 13.3022 102.784 13.3676C102.849 13.4236 102.882 13.4982 102.882 13.5916V14.2076C103.153 13.8622 103.47 13.5962 103.834 13.4096C104.207 13.2229 104.669 13.1296 105.22 13.1296C106.116 13.1296 106.811 13.4189 107.306 13.9976C107.81 14.5669 108.062 15.3276 108.062 16.2796V20.2276C108.062 20.3209 108.029 20.4002 107.964 20.4656C107.908 20.5216 107.833 20.5496 107.74 20.5496H107.04C106.947 20.5496 106.867 20.5216 106.802 20.4656C106.746 20.4002 106.718 20.3209 106.718 20.2276V16.3496C106.718 15.6869 106.555 15.1736 106.228 14.8096C105.911 14.4456 105.449 14.2636 104.842 14.2636C104.254 14.2636 103.787 14.4502 103.442 14.8236C103.097 15.1876 102.924 15.6962 102.924 16.3496V20.2276C102.924 20.3209 102.891 20.4002 102.826 20.4656C102.77 20.5216 102.695 20.5496 102.602 20.5496H101.902ZM112.73 20.6896C111.759 20.6896 111.027 20.3722 110.532 19.7376C110.037 19.1029 109.776 18.3002 109.748 17.3296L109.734 16.9096L109.748 16.4896C109.776 15.5282 110.037 14.7302 110.532 14.0956C111.027 13.4516 111.759 13.1296 112.73 13.1296C113.691 13.1296 114.447 13.4702 114.998 14.1516V10.9316C114.998 10.8382 115.026 10.7636 115.082 10.7076C115.147 10.6422 115.227 10.6096 115.32 10.6096H115.992C116.085 10.6096 116.16 10.6422 116.216 10.7076C116.281 10.7636 116.314 10.8382 116.314 10.9316V20.2276C116.314 20.3209 116.281 20.4002 116.216 20.4656C116.16 20.5216 116.085 20.5496 115.992 20.5496H115.362C115.269 20.5496 115.189 20.5216 115.124 20.4656C115.068 20.4002 115.04 20.3209 115.04 20.2276V19.6396C114.499 20.3396 113.729 20.6896 112.73 20.6896ZM113.024 19.5556C113.668 19.5556 114.149 19.3456 114.466 18.9256C114.793 18.4962 114.97 17.9876 114.998 17.3996C115.007 17.2969 115.012 17.1196 115.012 16.8676C115.012 16.6062 115.007 16.4242 114.998 16.3216C114.979 15.7709 114.802 15.2902 114.466 14.8796C114.13 14.4689 113.649 14.2636 113.024 14.2636C112.361 14.2636 111.876 14.4689 111.568 14.8796C111.269 15.2902 111.106 15.8316 111.078 16.5036L111.064 16.9096C111.064 18.6736 111.717 19.5556 113.024 19.5556ZM122.164 20.5496C122.071 20.5496 121.991 20.5216 121.926 20.4656C121.87 20.4002 121.842 20.3209 121.842 20.2276V10.9316C121.842 10.8382 121.87 10.7636 121.926 10.7076C121.991 10.6422 122.071 10.6096 122.164 10.6096H122.822C122.915 10.6096 122.99 10.6422 123.046 10.7076C123.111 10.7636 123.144 10.8382 123.144 10.9316V20.2276C123.144 20.3209 123.111 20.4002 123.046 20.4656C122.99 20.5216 122.915 20.5496 122.822 20.5496H122.164ZM128.144 20.6896C127.183 20.6896 126.413 20.3956 125.834 19.8076C125.265 19.2102 124.952 18.3982 124.896 17.3716L124.882 16.8956L124.896 16.4336C124.962 15.4256 125.279 14.6229 125.848 14.0256C126.427 13.4282 127.188 13.1296 128.13 13.1296C129.166 13.1296 129.969 13.4609 130.538 14.1236C131.108 14.7769 131.392 15.6636 131.392 16.7836V17.0216C131.392 17.1149 131.36 17.1942 131.294 17.2596C131.238 17.3156 131.164 17.3436 131.07 17.3436H126.226V17.4696C126.254 18.0762 126.436 18.5942 126.772 19.0236C127.118 19.4436 127.57 19.6536 128.13 19.6536C128.56 19.6536 128.91 19.5696 129.18 19.4016C129.46 19.2242 129.666 19.0422 129.796 18.8556C129.88 18.7436 129.941 18.6782 129.978 18.6596C130.025 18.6316 130.104 18.6176 130.216 18.6176H130.902C130.986 18.6176 131.056 18.6409 131.112 18.6876C131.168 18.7342 131.196 18.7996 131.196 18.8836C131.196 19.0889 131.066 19.3362 130.804 19.6256C130.552 19.9149 130.193 20.1669 129.726 20.3816C129.269 20.5869 128.742 20.6896 128.144 20.6896ZM130.062 16.3776V16.3356C130.062 15.6916 129.885 15.1689 129.53 14.7676C129.185 14.3569 128.718 14.1516 128.13 14.1516C127.542 14.1516 127.076 14.3569 126.73 14.7676C126.394 15.1689 126.226 15.6916 126.226 16.3356V16.3776H130.062ZM135.096 20.6896C134.639 20.6896 134.214 20.5962 133.822 20.4096C133.43 20.2229 133.118 19.9709 132.884 19.6536C132.66 19.3269 132.548 18.9676 132.548 18.5756C132.548 17.9596 132.8 17.4556 133.304 17.0636C133.818 16.6622 134.508 16.4009 135.376 16.2796L137.462 15.9856V15.5796C137.462 14.6276 136.916 14.1516 135.824 14.1516C135.414 14.1516 135.078 14.2402 134.816 14.4176C134.555 14.5856 134.359 14.7862 134.228 15.0196C134.2 15.1036 134.163 15.1642 134.116 15.2016C134.079 15.2389 134.023 15.2576 133.948 15.2576H133.346C133.262 15.2576 133.188 15.2296 133.122 15.1736C133.066 15.1082 133.038 15.0336 133.038 14.9496C133.048 14.7256 133.15 14.4736 133.346 14.1936C133.552 13.9042 133.864 13.6569 134.284 13.4516C134.704 13.2369 135.222 13.1296 135.838 13.1296C136.884 13.1296 137.635 13.3769 138.092 13.8716C138.55 14.3569 138.778 14.9636 138.778 15.6916V20.2276C138.778 20.3209 138.746 20.4002 138.68 20.4656C138.624 20.5216 138.55 20.5496 138.456 20.5496H137.812C137.719 20.5496 137.64 20.5216 137.574 20.4656C137.518 20.4002 137.49 20.3209 137.49 20.2276V19.6256C137.285 19.9242 136.986 20.1762 136.594 20.3816C136.202 20.5869 135.703 20.6896 135.096 20.6896ZM135.39 19.6396C135.997 19.6396 136.492 19.4436 136.874 19.0516C137.266 18.6502 137.462 18.0762 137.462 17.3296V16.9376L135.838 17.1756C135.176 17.2689 134.676 17.4276 134.34 17.6516C134.004 17.8662 133.836 18.1416 133.836 18.4776C133.836 18.8509 133.99 19.1402 134.298 19.3456C134.606 19.5416 134.97 19.6396 135.39 19.6396ZM143.451 20.6896C142.48 20.6896 141.747 20.3722 141.253 19.7376C140.758 19.1029 140.497 18.3002 140.469 17.3296L140.455 16.9096L140.469 16.4896C140.497 15.5282 140.758 14.7302 141.253 14.0956C141.747 13.4516 142.48 13.1296 143.451 13.1296C144.412 13.1296 145.168 13.4702 145.719 14.1516V10.9316C145.719 10.8382 145.747 10.7636 145.803 10.7076C145.868 10.6422 145.947 10.6096 146.041 10.6096H146.713C146.806 10.6096 146.881 10.6422 146.937 10.7076C147.002 10.7636 147.035 10.8382 147.035 10.9316V20.2276C147.035 20.3209 147.002 20.4002 146.937 20.4656C146.881 20.5216 146.806 20.5496 146.713 20.5496H146.083C145.989 20.5496 145.91 20.5216 145.845 20.4656C145.789 20.4002 145.761 20.3209 145.761 20.2276V19.6396C145.219 20.3396 144.449 20.6896 143.451 20.6896ZM143.745 19.5556C144.389 19.5556 144.869 19.3456 145.187 18.9256C145.513 18.4962 145.691 17.9876 145.719 17.3996C145.728 17.2969 145.733 17.1196 145.733 16.8676C145.733 16.6062 145.728 16.4242 145.719 16.3216C145.7 15.7709 145.523 15.2902 145.187 14.8796C144.851 14.4689 144.37 14.2636 143.745 14.2636C143.082 14.2636 142.597 14.4689 142.289 14.8796C141.99 15.2902 141.827 15.8316 141.799 16.5036L141.785 16.9096C141.785 18.6736 142.438 19.5556 143.745 19.5556ZM151.637 20.6896C150.984 20.6896 150.433 20.5869 149.985 20.3816C149.546 20.1669 149.215 19.9242 148.991 19.6536C148.776 19.3829 148.669 19.1589 148.669 18.9816C148.669 18.8882 148.702 18.8182 148.767 18.7716C148.842 18.7156 148.916 18.6876 148.991 18.6876H149.621C149.714 18.6876 149.798 18.7342 149.873 18.8276C150.097 19.0889 150.34 19.2942 150.601 19.4436C150.862 19.5929 151.212 19.6676 151.651 19.6676C152.136 19.6676 152.528 19.5742 152.827 19.3876C153.135 19.1916 153.289 18.9256 153.289 18.5896C153.289 18.3656 153.224 18.1836 153.093 18.0436C152.972 17.8942 152.757 17.7682 152.449 17.6656C152.15 17.5536 151.702 17.4322 151.105 17.3016C150.293 17.1242 149.714 16.8676 149.369 16.5316C149.033 16.1956 148.865 15.7616 148.865 15.2296C148.865 14.8749 148.968 14.5389 149.173 14.2216C149.388 13.8949 149.696 13.6336 150.097 13.4376C150.508 13.2322 150.998 13.1296 151.567 13.1296C152.164 13.1296 152.673 13.2276 153.093 13.4236C153.513 13.6196 153.826 13.8529 154.031 14.1236C154.246 14.3849 154.353 14.6042 154.353 14.7816C154.353 14.8656 154.32 14.9356 154.255 14.9916C154.199 15.0476 154.129 15.0756 154.045 15.0756H153.457C153.345 15.0756 153.252 15.0289 153.177 14.9356C153.028 14.7582 152.897 14.6229 152.785 14.5296C152.682 14.4269 152.528 14.3382 152.323 14.2636C152.127 14.1889 151.875 14.1516 151.567 14.1516C151.119 14.1516 150.774 14.2496 150.531 14.4456C150.288 14.6322 150.167 14.8796 150.167 15.1876C150.167 15.3836 150.218 15.5516 150.321 15.6916C150.424 15.8222 150.62 15.9436 150.909 16.0556C151.208 16.1676 151.637 16.2842 152.197 16.4056C153.084 16.5922 153.709 16.8629 154.073 17.2176C154.446 17.5629 154.633 18.0062 154.633 18.5476C154.633 18.9489 154.516 19.3129 154.283 19.6396C154.05 19.9662 153.704 20.2229 153.247 20.4096C152.799 20.5962 152.262 20.6896 151.637 20.6896ZM155.821 21.7256C155.746 21.7256 155.681 21.6976 155.625 21.6416C155.569 21.5856 155.541 21.5202 155.541 21.4456C155.541 21.4082 155.555 21.3522 155.583 21.2776L160.371 9.79756C160.445 9.62956 160.567 9.54556 160.735 9.54556H161.281C161.355 9.54556 161.421 9.57356 161.477 9.62956C161.533 9.68556 161.561 9.75089 161.561 9.82556C161.561 9.89089 161.551 9.94689 161.533 9.99356L156.731 21.4736C156.656 21.6416 156.535 21.7256 156.367 21.7256H155.821ZM162.81 23.2096C162.717 23.2096 162.638 23.1769 162.572 23.1116C162.516 23.0556 162.488 22.9809 162.488 22.8876V13.5916C162.488 13.4982 162.516 13.4236 162.572 13.3676C162.638 13.3022 162.717 13.2696 162.81 13.2696H163.454C163.548 13.2696 163.622 13.3022 163.678 13.3676C163.744 13.4236 163.776 13.4982 163.776 13.5916V14.2076C164.299 13.4889 165.064 13.1296 166.072 13.1296C167.052 13.1296 167.785 13.4376 168.27 14.0536C168.765 14.6696 169.031 15.4629 169.068 16.4336C169.078 16.5362 169.082 16.6949 169.082 16.9096C169.082 17.1242 169.078 17.2829 169.068 17.3856C169.031 18.3469 168.765 19.1402 168.27 19.7656C167.776 20.3816 167.043 20.6896 166.072 20.6896C165.102 20.6896 164.346 20.3396 163.804 19.6396V22.8876C163.804 22.9809 163.776 23.0556 163.72 23.1116C163.664 23.1769 163.59 23.2096 163.496 23.2096H162.81ZM165.778 19.5556C166.441 19.5556 166.922 19.3502 167.22 18.9396C167.528 18.5289 167.696 17.9876 167.724 17.3156C167.734 17.2222 167.738 17.0869 167.738 16.9096C167.738 15.1456 167.085 14.2636 165.778 14.2636C165.134 14.2636 164.649 14.4782 164.322 14.9076C164.005 15.3276 163.832 15.8316 163.804 16.4196L163.79 16.9516L163.804 17.4976C163.823 18.0482 164 18.5289 164.336 18.9396C164.672 19.3502 165.153 19.5556 165.778 19.5556ZM171.136 20.5496C171.043 20.5496 170.964 20.5216 170.898 20.4656C170.842 20.4002 170.814 20.3209 170.814 20.2276V13.5916C170.814 13.4982 170.842 13.4236 170.898 13.3676C170.964 13.3022 171.043 13.2696 171.136 13.2696H171.766C171.86 13.2696 171.934 13.3022 171.99 13.3676C172.056 13.4236 172.088 13.4982 172.088 13.5916V14.0816C172.574 13.4469 173.25 13.1296 174.118 13.1296C175.154 13.1296 175.887 13.5589 176.316 14.4176C176.54 14.0256 176.858 13.7129 177.268 13.4796C177.679 13.2462 178.141 13.1296 178.654 13.1296C179.42 13.1296 180.045 13.3909 180.53 13.9136C181.016 14.4362 181.258 15.1922 181.258 16.1816V20.2276C181.258 20.3209 181.226 20.4002 181.16 20.4656C181.104 20.5216 181.03 20.5496 180.936 20.5496H180.278C180.185 20.5496 180.106 20.5216 180.04 20.4656C179.984 20.4002 179.956 20.3209 179.956 20.2276V16.3076C179.956 15.5796 179.802 15.0569 179.494 14.7396C179.196 14.4222 178.799 14.2636 178.304 14.2636C177.866 14.2636 177.488 14.4269 177.17 14.7536C176.853 15.0709 176.694 15.5889 176.694 16.3076V20.2276C176.694 20.3209 176.662 20.4002 176.596 20.4656C176.54 20.5216 176.466 20.5496 176.372 20.5496H175.714C175.621 20.5496 175.542 20.5216 175.476 20.4656C175.42 20.4002 175.392 20.3209 175.392 20.2276V16.3076C175.392 15.5796 175.234 15.0569 174.916 14.7396C174.608 14.4222 174.216 14.2636 173.74 14.2636C173.302 14.2636 172.924 14.4269 172.606 14.7536C172.289 15.0709 172.13 15.5842 172.13 16.2936V20.2276C172.13 20.3209 172.098 20.4002 172.032 20.4656C171.976 20.5216 171.902 20.5496 171.808 20.5496H171.136Z" fill="#4F5665"/>
<path d="M11.4487 20.2796C11.3174 20.2798 11.1874 20.2542 11.0661 20.2041C10.9448 20.154 10.8345 20.0804 10.7417 19.9876L6.4997 15.7446C6.40412 15.6524 6.32786 15.5421 6.27537 15.4201C6.22288 15.2982 6.1952 15.167 6.19395 15.0342C6.19271 14.9014 6.21792 14.7697 6.26811 14.6468C6.3183 14.5238 6.39248 14.4121 6.4863 14.3182C6.58013 14.2242 6.69173 14.1499 6.81458 14.0995C6.93744 14.0492 7.0691 14.0238 7.20188 14.0248C7.33466 14.0259 7.4659 14.0534 7.58794 14.1057C7.70998 14.158 7.82038 14.2341 7.9127 14.3296L11.4477 17.8646L17.8127 11.5016C18.0002 11.3139 18.2546 11.2085 18.5198 11.2084C18.7851 11.2083 19.0396 11.3136 19.2272 11.5011C19.4148 11.6886 19.5203 11.9429 19.5204 12.2082C19.5205 12.4735 19.4152 12.7279 19.2277 12.9156L12.1557 19.9876C12.0629 20.0804 11.9526 20.154 11.8313 20.2041C11.71 20.2542 11.58 20.2798 11.4487 20.2796Z" fill="#2FAB73"/>
</svg>
